<?xml version="1.0" encoding="UTF-8"?><svg id="Layer_1" xmlns="http://www.w3.org/2000/svg" width="26" height="17" viewBox="0 0 29 20"><path id="Icon_awesome-newspaper" fill="#fff" d="M21.85,0H3.48C2.96,0,2.53,.43,2.53,.95v.32H.95C.43,1.27,0,1.69,0,2.22V12.98c0,1.22,.99,2.22,2.21,2.22,0,0,0,0,0,0H20.9c1.05,0,1.9-.85,1.9-1.9V.95c0-.52-.43-.95-.95-.95,0,0,0,0,0,0ZM2.22,13.3c-.18,0-.32-.14-.32-.32,0,0,0,0,0,0V3.17h.63V12.98c0,.18-.14,.32-.31,.32,0,0,0,0,0,0Zm9.34-.63H5.54c-.26,0-.47-.21-.47-.48h0v-.32c0-.26,.21-.48,.47-.48h6.02c.26,0,.48,.21,.48,.48h0v.32c0,.26-.21,.47-.47,.47h0Zm8.23,0h-6.01c-.26,0-.48-.21-.48-.48h0v-.32c0-.26,.21-.48,.47-.48h6.02c.26,0,.48,.21,.48,.48h0v.32c0,.26-.21,.47-.48,.47h0Zm-8.23-3.8H5.54c-.26,0-.47-.21-.47-.48h0v-.32c0-.26,.21-.47,.47-.47h6.02c.26,0,.48,.21,.48,.47h0v.32c0,.26-.21,.47-.47,.47h0Zm8.23,0h-6.01c-.26,0-.48-.21-.48-.47h0v-.32c0-.26,.21-.48,.47-.48h6.02c.26,0,.48,.21,.48,.47h0v.32c0,.26-.21,.47-.48,.47h0Zm0-3.8H5.54c-.26,0-.47-.21-.47-.48h0v-1.58c0-.26,.21-.47,.47-.47h14.25c.26,0,.48,.21,.48,.47h0v1.58c0,.26-.21,.48-.48,.48h0Z"/></svg>