<?xml version="1.0" encoding="UTF-8"?>
<svg role="img" d="Layer_2" xmlns="http://www.w3.org/2000/svg" width="160" height="39.39" viewBox="0 0 2620.52 645.16">
  <title>Earth Sciences New Zealand logo</title>
  <g id="Layer_2-2" data-name="Layer_2">
    <g>
      <g>
        <path d="M730.96,421.3v145.79h-18.91v-171.23h22.73l96.2,145.79v-145.79h18.67v171.23h-22.73l-95.96-145.79Z"/>
        <path d="M895.24,561.5c-8.7-5.63-15.4-13.36-20.1-23.19-4.71-9.83-7.06-20.85-7.06-33.06s2.35-23.22,7.06-33.06c4.7-9.83,11.4-17.56,20.1-23.19,8.69-5.63,18.79-8.45,30.27-8.45s21.62,2.82,30.39,8.45c8.77,5.63,15.51,13.36,20.22,23.19,4.7,9.83,7.06,20.85,7.06,33.06v6.18h-96.2c.96,12.69,4.79,22.92,11.49,30.68,6.7,7.77,15.71,11.65,27.04,11.65,8.62,0,16.15-2.22,22.62-6.66,6.46-4.44,11.13-10.54,14-18.31h18.43c-3.83,12.53-10.61,22.52-20.34,29.97-9.73,7.45-21.3,11.18-34.7,11.18-11.49,0-21.58-2.82-30.27-8.44ZM963.57,495.27c-1.44-11.73-5.43-21.08-11.97-28.07-6.54-6.97-15.24-10.46-26.09-10.46s-19.35,3.49-25.96,10.46c-6.62,6.98-10.65,16.33-12.09,28.07h76.1Z"/>
        <path d="M1077.48,466.73l-30.87,100.36h-18.67l-45.23-123.67h19.38l34.94,101.08,31.11-101.08h18.67l31.11,100.84,34.7-100.84h19.62l-45.47,123.67h-18.43l-30.87-100.36Z"/>
        <path d="M1215.32,550.44l107.21-137.94-37.1.47h-65.81v-17.12h126.12v16.65l-107.45,137.94,37.09-.47h71.56v17.12h-131.62v-16.65Z"/>
        <path d="M1378.41,561.5c-8.7-5.63-15.4-13.36-20.1-23.19-4.71-9.83-7.06-20.85-7.06-33.06s2.35-23.22,7.06-33.06c4.71-9.83,11.41-17.56,20.1-23.19,8.7-5.63,18.79-8.45,30.27-8.45s21.62,2.82,30.39,8.45c8.77,5.63,15.51,13.36,20.22,23.19,4.7,9.83,7.06,20.85,7.06,33.06v6.18h-96.2c.95,12.69,4.79,22.92,11.49,30.68,6.7,7.77,15.71,11.65,27.04,11.65,8.61,0,16.15-2.22,22.62-6.66,6.46-4.44,11.13-10.54,14-18.31h18.43c-3.83,12.53-10.61,22.52-20.34,29.97-9.73,7.45-21.3,11.18-34.7,11.18-11.49,0-21.58-2.82-30.27-8.44ZM1446.73,495.27c-1.44-11.73-5.43-21.08-11.97-28.07-6.54-6.97-15.24-10.46-26.08-10.46s-19.35,3.49-25.96,10.46c-6.62,6.98-10.65,16.33-12.09,28.07h76.1Z"/>
        <path d="M1561.36,549.73c-9.73,13.48-23.54,20.22-41.4,20.22-13.88,0-24.73-3.17-32.55-9.51-7.82-6.34-11.73-15.22-11.73-26.64,0-10.46,3.79-18.75,11.36-24.85,7.58-6.1,18.79-10.58,33.62-13.44l39.97-7.85v-9.75c0-7.61-2.44-13.08-7.3-16.41-4.87-3.33-12.09-4.99-21.66-4.99s-17.03,1.9-23.33,5.71c-6.31,3.81-9.69,10.23-10.17,19.27h-17.95c.32-13.79,5.34-24.06,15.08-30.8,9.73-6.74,21.86-10.11,36.37-10.11,15.47,0,27.08,3.13,34.82,9.39,7.73,6.27,11.61,15.02,11.61,26.28v90.85h-16.75v-17.36ZM1548.92,544.62c7.81-6.26,11.73-15.42,11.73-27.47v-14.27l-37.57,7.85c-10.05,2.22-17.35,4.87-21.9,7.97-4.55,3.09-6.82,7.97-6.82,14.63s2.16,11.38,6.46,15.1c4.31,3.72,10.93,5.59,19.86,5.59,11.01,0,20.42-3.13,28.24-9.39Z"/>
        <path d="M1614.97,395.86v141.03c0,5.08,1.04,8.76,3.11,11.06,2.07,2.3,5.58,3.45,10.53,3.45h16.51v15.7h-19.62c-10.53,0-17.91-2.3-22.14-6.9-4.23-4.6-6.34-11.73-6.34-21.41v-142.93h17.95Z"/>
        <path d="M1737.5,549.73c-9.73,13.48-23.54,20.22-41.4,20.22-13.88,0-24.73-3.17-32.55-9.51-7.82-6.34-11.73-15.22-11.73-26.64,0-10.46,3.79-18.75,11.36-24.85,7.58-6.1,18.79-10.58,33.62-13.44l39.97-7.85v-9.75c0-7.61-2.44-13.08-7.3-16.41-4.87-3.33-12.09-4.99-21.66-4.99s-17.03,1.9-23.33,5.71c-6.31,3.81-9.69,10.23-10.17,19.27h-17.95c.32-13.79,5.34-24.06,15.08-30.8,9.73-6.74,21.86-10.11,36.37-10.11,15.47,0,27.08,3.13,34.82,9.39,7.73,6.27,11.61,15.02,11.61,26.28v90.85h-16.75v-17.36ZM1725.05,544.62c7.81-6.26,11.73-15.42,11.73-27.47v-14.27l-37.57,7.85c-10.05,2.22-17.35,4.87-21.9,7.97-4.55,3.09-6.82,7.97-6.82,14.63s2.16,11.38,6.46,15.1c4.31,3.72,10.93,5.59,19.86,5.59,11.01,0,20.42-3.13,28.24-9.39Z"/>
        <path d="M1849.85,465.06c-5.03-5.55-12.41-8.32-22.14-8.32-4.95,0-10.21,1.19-15.79,3.57-5.59,2.38-10.45,6.62-14.6,12.73-4.15,6.1-6.22,14.39-6.22,24.85v69.21h-17.95v-123.67h17.23v19.03c4.31-6.66,9.89-11.97,16.75-15.94,6.86-3.96,14.84-5.95,23.93-5.95,9.89,0,18.15,2.1,24.77,6.3,6.62,4.21,11.52,9.75,14.72,16.65,3.19,6.9,4.79,14.39,4.79,22.48v81.1h-17.95v-79.19c0-9.67-2.51-17.28-7.54-22.83Z"/>
        <path d="M1992.6,567.09v-20.45c-4.47,7.46-10.33,13.2-17.59,17.24-7.26,4.04-15.67,6.07-25.25,6.07-12.12,0-22.5-2.78-31.11-8.33-8.61-5.55-15.16-13.24-19.62-23.07-4.47-9.83-6.7-20.93-6.7-33.3s2.23-23.46,6.7-33.3c4.46-9.83,11.01-17.52,19.62-23.07,8.61-5.55,18.99-8.33,31.11-8.33,9.41,0,17.67,1.9,24.77,5.71,7.1,3.81,12.88,9.28,17.35,16.41v-66.83h17.95v171.23h-17.23ZM1981.95,540.34c6.94-8.96,10.41-20.65,10.41-35.08s-3.47-26.12-10.41-35.08c-6.94-8.96-17.03-13.44-30.27-13.44s-23.09,4.48-30.04,13.44c-6.94,8.96-10.41,20.66-10.41,35.08s3.47,26.12,10.41,35.08c6.94,8.96,16.95,13.44,30.04,13.44s23.33-4.48,30.27-13.44Z"/>
      </g>
      <g>
        <path d="M712.05,137.14h155.95v32.96h-119.21v54.63h110.54v31.77h-110.54v61.46h118.31v32.96h-155.06v-213.77Z"/>
        <path d="M984.86,332.8c-6.38,7.72-13.64,13.26-21.81,16.63-8.17,3.36-17.33,5.05-27.49,5.05-17.33,0-31.07-4.05-41.23-12.17-10.16-8.11-15.24-19.49-15.24-34.14,0-13.26,4.78-23.65,14.34-31.17,9.56-7.52,24.3-13.06,44.22-16.63l46.01-8.31v-9.8c0-7.52-2.39-13.11-7.17-16.78-4.78-3.66-12.25-5.49-22.41-5.49s-17.83,2.03-24.2,6.09c-6.38,4.06-9.76,10.44-10.16,19.15h-34.06c.4-17.41,6.97-30.48,19.72-39.19,12.74-8.71,28.88-13.06,48.4-13.06,21.11,0,37,4.01,47.65,12.02,10.65,8.02,15.98,19.25,15.98,33.7v112.23h-32.57v-18.11ZM971.41,318.84c8.16-6.33,12.25-15.74,12.25-28.21v-14.55l-39.74,8.02c-10.36,2.18-17.88,4.8-22.56,7.87-4.68,3.07-7.02,8.07-7.02,14.99,0,6.53,2.34,11.73,7.02,15.59,4.68,3.86,11.6,5.79,20.76,5.79,11.35,0,21.11-3.16,29.28-9.5Z"/>
        <path d="M1128,223.49c-24.69.51-38.89,6.63-46.76,13.85-7.87,7.23-11.8,19.55-11.8,36.97v76.6h-34.36v-154.39h33.16v27.31c9.96-19.4,25.89-27.26,47.8-27.26h11.95"/>
        <path d="M1199.7,149.01v47.51h40.03v27.02h-40.03v85.21c0,5.34,1.14,9.2,3.44,11.58,2.29,2.38,6.22,3.56,11.8,3.56h24.8v27.02h-33.16c-13.74,0-24.05-2.87-30.92-8.61-6.87-5.74-10.31-15.63-10.31-29.69v-89.07h-24.46v-27.02h24.46v-47.51h34.36Z"/>
        <path d="M1255.27,137.14h34.36v79.27c12.55-15.63,28.58-23.46,48.1-23.46,17.72,0,31.37,5.49,40.93,16.48,9.56,10.99,14.34,25.39,14.34,43.2v98.28h-34.06v-94.42c0-10.29-2.59-18.45-7.77-24.49-5.18-6.03-13.05-9.05-23.6-9.05-5.38,0-10.96,1.24-16.73,3.71-5.78,2.48-10.75,6.93-14.94,13.36-4.19,6.43-6.28,14.99-6.28,25.68v85.21h-34.36v-213.77Z"/>
        <path d="M1482.39,335.17c-16.43-12.87-24.95-31.57-25.55-56.12h36.45c.6,16.23,5.93,27.76,15.99,34.59,10.05,6.83,23.15,10.24,39.29,10.24,13.94,0,25.14-2.77,33.61-8.31,8.46-5.54,12.7-13.56,12.7-24.05,0-5.74-1.49-10.54-4.48-14.4-2.99-3.86-8.47-7.37-16.43-10.54-7.97-3.16-19.62-6.23-34.96-9.2-26.49-5.15-45.81-12.62-57.96-22.42-12.15-9.8-18.23-24.1-18.23-42.9,0-11.48,3.29-21.67,9.86-30.58,6.57-8.91,15.73-15.78,27.48-20.64,11.75-4.85,25.29-7.27,40.63-7.27,28.28,0,49.64,6.43,64.09,19.3,14.44,12.87,21.96,30.19,22.56,51.96h-35.85c-.8-13.85-5.28-24.1-13.45-30.73-8.17-6.63-20.61-9.95-37.35-9.95-12.15,0-21.91,2.43-29.28,7.27-7.37,4.85-11.06,11.43-11.06,19.74,0,6.14,1.24,11.13,3.73,15,2.49,3.86,7.47,7.38,14.94,10.54,7.47,3.17,18.67,6.24,33.61,9.21,20.71,3.96,36.85,8.81,48.4,14.55,11.55,5.74,19.67,12.57,24.35,20.49,4.68,7.92,7.02,17.62,7.02,29.1,0,13.26-3.58,24.74-10.75,34.44-7.17,9.7-17.14,17.12-29.88,22.27-12.75,5.14-27.49,7.72-44.22,7.72-27.09,0-48.85-6.43-65.28-19.3Z"/>
        <path d="M1677.18,343.93c-11.46-7.02-20.22-16.63-26.29-28.8-6.08-12.17-9.11-25.98-9.11-41.42s3.04-29.25,9.11-41.42c6.07-12.17,14.83-21.77,26.29-28.8,11.45-7.02,24.75-10.54,39.88-10.54,20.12,0,36.3,5.25,48.55,15.74,12.25,10.49,19.57,24.55,21.96,42.16h-34.66c-1.79-8.91-5.83-15.93-12.1-21.08-6.27-5.15-14.19-7.72-23.75-7.72-12.95,0-22.85,4.65-29.73,13.95-6.87,9.31-10.31,21.87-10.31,37.71s3.44,28.41,10.31,37.71c6.87,9.31,16.78,13.96,29.73,13.96,9.76,0,17.78-2.72,24.05-8.17,6.27-5.44,10.21-12.92,11.8-22.42h34.66c-2.2,18.01-9.56,32.47-22.11,43.35-12.55,10.89-28.68,16.33-48.4,16.33-15.14,0-28.43-3.52-39.88-10.54Z"/>
        <path d="M1819.58,143.79h.81c9.26,0,16.77,7.51,16.77,16.77h0c0,9.26-7.51,16.77-16.77,16.77h-.81c-9.26,0-16.77-7.51-16.77-16.77h0c0-9.26,7.51-16.77,16.77-16.77ZM1802.81,196.52h34.36v154.39h-34.36v-154.39Z"/>
        <path d="M1889.9,343.93c-11.46-7.02-20.27-16.63-26.44-28.8-6.18-12.17-9.26-25.98-9.26-41.42s3.09-29.25,9.26-41.42c6.17-12.17,14.98-21.77,26.44-28.8,11.45-7.02,24.84-10.54,40.18-10.54s28.73,3.46,40.18,10.39c11.45,6.93,20.21,16.68,26.29,29.25,6.07,12.57,9.11,26.97,9.11,43.2v8.91h-116.82c1.59,13.06,5.93,23.36,13,30.88,7.07,7.53,16.48,11.28,28.23,11.28,9.36,0,17.28-2.02,23.75-6.09,6.47-4.05,11.4-9.75,14.79-17.07h34.06c-4.98,15.64-13.89,28.01-26.74,37.11-12.85,9.11-28.13,13.66-45.86,13.66-15.34,0-28.73-3.52-40.18-10.54ZM1970.42,259.17c-1.99-12.07-6.47-21.53-13.44-28.35-6.97-6.83-15.94-10.24-26.89-10.24s-20.22,3.41-27.19,10.24c-6.97,6.83-11.46,16.28-13.45,28.35h80.96Z"/>
        <path d="M2119.2,232c-5.18-6.03-13.05-9.05-23.6-9.05-5.38,0-10.96,1.24-16.73,3.71-5.78,2.48-10.75,6.93-14.94,13.36-4.19,6.43-6.28,14.99-6.28,25.68v85.21h-34.36v-154.39h33.16v21.67c5.78-7.72,12.8-13.85,21.06-18.41,8.26-4.55,17.67-6.83,28.23-6.83,17.72,0,31.37,5.49,40.93,16.48,9.56,10.99,14.34,25.39,14.34,43.2v98.28h-34.06v-94.42c0-10.29-2.59-18.45-7.77-24.49Z"/>
        <path d="M2208.98,343.93c-11.46-7.02-20.22-16.63-26.29-28.8-6.08-12.17-9.11-25.98-9.11-41.42s3.04-29.25,9.11-41.42c6.07-12.17,14.83-21.77,26.29-28.8,11.45-7.02,24.75-10.54,39.88-10.54,20.12,0,36.3,5.25,48.55,15.74,12.25,10.49,19.57,24.55,21.96,42.16h-34.66c-1.79-8.91-5.83-15.93-12.1-21.08-6.27-5.15-14.19-7.72-23.75-7.72-12.95,0-22.85,4.65-29.73,13.95-6.87,9.31-10.31,21.87-10.31,37.71s3.44,28.41,10.31,37.71c6.87,9.31,16.78,13.96,29.73,13.96,9.76,0,17.78-2.72,24.05-8.17,6.27-5.44,10.21-12.92,11.8-22.42h34.66c-2.2,18.01-9.56,32.47-22.11,43.35-12.55,10.89-28.68,16.33-48.4,16.33-15.14,0-28.43-3.52-39.88-10.54Z"/>
        <path d="M2363.73,343.93c-11.46-7.02-20.27-16.63-26.44-28.8-6.18-12.17-9.26-25.98-9.26-41.42s3.09-29.25,9.26-41.42c6.17-12.17,14.98-21.77,26.44-28.8,11.45-7.02,24.84-10.54,40.18-10.54s28.73,3.46,40.18,10.39c11.45,6.93,20.21,16.68,26.29,29.25,6.07,12.57,9.11,26.97,9.11,43.2v8.91h-116.82c1.59,13.06,5.93,23.36,13,30.88,7.07,7.53,16.48,11.28,28.23,11.28,9.36,0,17.28-2.02,23.75-6.09,6.47-4.05,11.4-9.75,14.79-17.07h34.06c-4.98,15.64-13.89,28.01-26.74,37.11-12.85,9.11-28.13,13.66-45.86,13.66-15.34,0-28.73-3.52-40.18-10.54ZM2444.25,259.17c-1.99-12.07-6.47-21.53-13.44-28.35-6.97-6.83-15.94-10.24-26.89-10.24s-20.22,3.41-27.19,10.24c-6.97,6.83-11.46,16.28-13.45,28.35h80.96Z"/>
        <path d="M2614.99,284.7c-3.69-6.13-9.91-11.28-18.67-15.44-8.77-4.16-20.91-7.52-36.45-10.1-10.56-1.78-18.57-3.56-24.05-5.34-5.48-1.78-9.26-3.91-11.36-6.38-2.09-2.47-3.14-5.79-3.14-9.95,0-5.94,2.64-10.59,7.92-13.95,5.28-3.36,12.1-5.05,20.47-5.05,10.36,0,18.62,1.98,24.8,5.94,6.17,3.96,9.46,10.89,9.86,20.78h32.57c-.4-16.43-6.38-29.25-17.93-38.45-11.55-9.2-27.98-13.81-49.29-13.81-18.72,0-33.81,4.11-45.26,12.32-11.46,8.22-17.18,19.35-17.18,33.4,0,13.06,4.48,23.46,13.45,31.18,8.96,7.72,24.99,13.46,48.1,17.22,10.75,1.78,18.77,3.61,24.05,5.49,5.27,1.88,8.81,4.11,10.61,6.68,1.79,2.57,2.69,5.94,2.69,10.1,0,6.14-2.89,10.94-8.66,14.4-5.78,3.47-13.55,5.2-23.3,5.2-11.35,0-20.07-2.18-26.14-6.53-5.36-3.84-8.81-10.07-10.37-18.69h-33.92c1.8,16.77,8.35,29.32,19.79,37.54,12.25,8.81,28.83,13.21,49.74,13.21s36.35-4.16,48.7-12.47c12.35-8.31,18.52-19.89,18.52-34.74,0-8.91-1.84-16.43-5.53-22.57Z"/>
      </g>
    </g>
    <g>
      <path fill="#1822f8" d="M565.38,331.74c-13.62-132.82-119.14-238.34-251.96-251.96C133.34,61.31-16.93,211.58,1.54,391.66c13.62,132.82,119.14,238.34,251.96,251.96,180.08,18.47,330.35-131.8,311.88-311.88ZM248.29,596.06l-7.75,5.84c-1.43,1.07-3.35,1.22-4.92.36l-1.53-.84c-1.87-1.02-2.78-3.2-2.2-5.25l3.96-13.88c.55-1.93,2.31-3.28,4.32-3.3h.6c1.71-.03,3.28.9,4.08,2.41l4.73,8.89c1.05,1.98.51,4.42-1.28,5.77ZM389.72,386.82c-3.83,5.53-17.12,31.77-27.31,46.76-3.86,5.68-7.54,2.9-9.96,7.67-.66,1.3-1.5,3.18-2.33,5.12-1.51,3.52-.22,7.62,3.04,9.63l.95.59c1.23.76,1.94,2.05,2.33,3.56,1.44,5.65-3.13,11.08-8.95,11.16l-11.17.53c-2.1.2-3.77.76-7.62,3.33-3.28,2.19-10.39,6.76-14.23,9.23-3.47,2.23-5.64,6.16-5.29,10.27,0,.03,0,.06,0,.09l.75,7.94c.3,3.14-.42,4.08-2.43,6.51l-5.16,6.68c-2.01,2.43-2.97,5.56-2.68,8.7l1.17,12.43c.3,3.14-.67,6.27-2.68,8.7l-19.03,23.25c-2.01,2.43-4.9,3.96-8.05,4.26l-18.27,1.73c-3.14.3-6.27-.67-8.7-2.68l-10.71-8.86c-2.43-2.01-5.56-2.97-8.7-2.68l-14.58,1.26c-6.54.62-12.34-4.18-12.96-10.72l-1.94-20.55c-.27-2.83.75-5.62,2.78-7.61h0s9.93-7.91,9.93-7.91c6.25-5.15,9.69-12.22,13.74-19.23l5.66-8.76h0c1.75-2.39,4.45-3.92,7.4-4.2l4.47-.42c3.14-.3,13.62-16.84,13.62-16.84,2.01-2.43,4.9-3.96,8.05-4.26l2.35-.22c3.23-.3,6.19-1.91,8.2-4.45l28.68-36.19h0c3.49-5.26,7.32-27.86,9.84-31.07,2.43-3.09,6.4-5.45,8.03-7.06,1.05-1.04,3.33-3.52,4.38-4.74,2.06-2.39,2.23-4.99,1.87-9.08-.69-7.7-2.04-15.26-.2-17.28l12.96-13.6c.22-.23.49-.4.8-.49l1.24-.36c.67-.2,1.4.01,1.87.54l1.44,1.63c.45.51.58,1.24.32,1.88l-.95,2.36c-.18,1.12.45,2.21,1.51,2.63l4.77,3.04c1.53.61,2.7,1.88,3.17,3.46l3.48,11.88c.47,2.34,4.66,3.01,6.86.81,1.15-.63,10.58-11.93,12.47-14.26,1.88-2.31,5.26-2.73,7.65-.94,1.28.96,4.84,3.75,6.23,4.77,2.69,2,3.17,5.85,1.04,8.45l-1.51,2.06c-3.47,3.9-2.2,7.37-.15,9.52l2.42,2.2c2.91,2.91,3.06,5.5.08,9.8ZM423.79,227.74c7.43,4.89,21.4,10.26,21.4,10.26,4.82,2.04,11.27-.21,13.43-4.98l1.78-3.4c.51-1.13,1.75-2.54,3.14-2.94h0l2.29-.6c3.76-.99,7.75.28,10.24,3.27h0c1.12,1.34,1.85,2.96,2.12,4.68l3.45,21.82c.36,2.27-.5,4.57-2.26,6.05l-.07.06c-1.64,1.38-2.53,3.43-2.4,5.56.03.55.07,1.13.1,1.74.26,4.28-3.52,7.7-7.75,7.02l-4.58-.74c-1.54-.25-3.07.47-3.87,1.81l-3.93,6.52c-2.64,4.32.44,7.82,3.33,13.38l.07.14c1.46,2.81.06,10.19-.5,13.27-1.03,5.56-9.68,34.08-27.67,54.45h0s-8.62,8.21-8.62,8.21c-.5.52-1.29.65-1.93.31l-2.22-1.17c-.64-.34-.98-1.06-.83-1.77l.48-2.28c.14-.66-.14-1.33-.71-1.7l-1.73-1.14c-.95-.52-2.1-.6-3.06-.1-1.31.68-1.88,1.91-3.37,1.22-1.8-.82-2.1-1.17-3.8-1.98-3.45-1.63-3.38-4.5-1.97-6.87l10.17-17.9h0c5.84-14.88.61-22.69-6.64-27.79l-3.34-2.35c-1.99-1.4-4.24-2.37-6.62-2.85l-2.79-.56c-2.88-.58-5.48-2.01-7.67-3.96-1.96-1.74-4.29-3.01-6.81-3.73l-5.44-1.55c-4.93-1.41-7.98-6.33-7.04-11.37l.36-1.97c.51-2.74,2.14-5.14,4.5-6.61l3.32-2.08c.78-.49,1.63-.87,2.52-1.12l5.15-1.49h0c2.35-.86,3.87-3.13,3.76-5.63l-.26-6.27c-.09-2.13.09-4.25.53-6.34l1.48-6.98c1.29-6.07.32-12.4-2.74-17.79l-6.51-11.5c-4.95-8.75-11.42-16.56-19.09-23.05l-34.67-29.36c-1.88-1.6-2.96-4.07-4.1-6.47-1.25-2.63-3.27-4.82-5.79-6.28l-5.19-3s0,0,0,0c-2.85-3.24-.83-8.48,3.74-8.74,1.31-.07,2.58.42,3.6,1.24l10.95,8.81c2.63,2.11,5.78,3.47,9.12,3.93l4.42.61c4.91.67,9.38,3.15,12.56,6.96l17.83,21.36c1.73,2.08,2.99,4.5,3.7,7.11l1.02,3.79c1.16,4.3,4.27,7.81,8.41,9.47l6.22,2.5c.59.24,1.11.64,1.48,1.16l2.54,3.53c.98,1.36,2.83,1.92,4.32,1.14,1.92-1.01,2.39-3.35,1.24-4.97-1.37-1.93-3.37-4.74-5.07-7.12-1.48-2.08-.21-4.98,2.33-5.3l1.49-.19s.02,0,.03,0c1.38-.16,2.69.69,3.29,1.94l9.6,20.05c2.35,4.86,8.13,9.71,9.54,10.64Z"/>
      <path fill="#1822f8" d="M542.12,101.39C474.22,33.59,382.54-2.11,285.24.1,196.5,2.11,121.7,42.01,56.32,105.36c-7.11,6.89-11.17,16.33-11.17,26.22h0c0,3.03,3.66,4.55,5.8,2.4l5.73-5.76c126.98-123.69,328.39-123.23,455.4,1.23,125.44,122.93,126.11,324.6,12.28,447.85-7.15,7.74-14.41,14.82-14.41,14.82-2.16,2.35-.42,5.8,2.4,5.8,9.13,0,19.2-3.91,25.46-10.41,65.83-68.36,103.49-141.31,105.6-229.23,2.33-97.01-32.89-188.6-101.29-256.91Z"/>
    </g>
  </g>
</svg>
