<?xml version="1.0" encoding="UTF-8"?>
<svg role="img" id="Layer_2" xmlns="http://www.w3.org/2000/svg" version="1.1" width="69.2" height="85" viewBox="0 0 1343.98 1650.84">
  <title>Earth Sciences New Zealand logo</title>
  <path fill="#1822f8" d="M835.16,524.65"/>
  <g>
    <g>
      <path d="M355.07,1385.12v73.58h-9.54v-86.43h11.47l48.56,73.58v-73.58h9.42v86.43h-11.47l-48.44-73.58Z"/>
      <path d="M437.99,1455.88c-4.39-2.84-7.77-6.74-10.15-11.7-2.38-4.96-3.56-10.52-3.56-16.69s1.19-11.72,3.56-16.68c2.37-4.96,5.76-8.86,10.15-11.7,4.39-2.84,9.48-4.26,15.28-4.26s10.91,1.42,15.34,4.26c4.43,2.84,7.83,6.74,10.21,11.7,2.37,4.96,3.56,10.52,3.56,16.68v3.12h-48.56c.48,6.4,2.42,11.57,5.8,15.49,3.38,3.92,7.93,5.88,13.65,5.88,4.35,0,8.15-1.12,11.41-3.36,3.26-2.24,5.62-5.32,7.07-9.24h9.3c-1.93,6.32-5.36,11.36-10.27,15.13-4.91,3.76-10.75,5.64-17.51,5.64-5.8,0-10.89-1.42-15.28-4.26ZM472.48,1422.45c-.73-5.92-2.74-10.64-6.04-14.17-3.3-3.52-7.69-5.28-13.17-5.28s-9.76,1.76-13.1,5.28c-3.34,3.52-5.38,8.24-6.1,14.17h38.41Z"/>
      <path d="M529.97,1408.04l-15.58,50.66h-9.42l-22.83-62.42h9.78l17.64,51.02,15.7-51.02h9.42l15.7,50.9,17.51-50.9h9.9l-22.95,62.42h-9.3l-15.58-50.66Z"/>
      <path d="M599.54,1450.3l54.11-69.62-18.72.24h-33.22v-8.64h63.65v8.4l-54.23,69.62,18.72-.24h36.12v8.64h-66.43v-8.4Z"/>
      <path d="M681.86,1455.88c-4.39-2.84-7.77-6.74-10.15-11.7-2.37-4.96-3.56-10.52-3.56-16.69s1.19-11.72,3.56-16.68c2.37-4.96,5.76-8.86,10.15-11.7,4.39-2.84,9.48-4.26,15.28-4.26s10.91,1.42,15.34,4.26c4.43,2.84,7.83,6.74,10.21,11.7,2.37,4.96,3.56,10.52,3.56,16.68v3.12h-48.56c.48,6.4,2.42,11.57,5.8,15.49,3.38,3.92,7.93,5.88,13.65,5.88,4.35,0,8.15-1.12,11.41-3.36,3.26-2.24,5.62-5.32,7.07-9.24h9.3c-1.93,6.32-5.36,11.36-10.27,15.13-4.91,3.76-10.75,5.64-17.51,5.64-5.8,0-10.89-1.42-15.28-4.26ZM716.34,1422.45c-.72-5.92-2.74-10.64-6.04-14.17-3.3-3.52-7.69-5.28-13.17-5.28s-9.76,1.76-13.1,5.28c-3.34,3.52-5.38,8.24-6.1,14.17h38.41Z"/>
      <path d="M774.2,1449.94c-4.91,6.8-11.88,10.2-20.9,10.2-7,0-12.48-1.6-16.43-4.8-3.95-3.2-5.92-7.68-5.92-13.44,0-5.28,1.91-9.46,5.74-12.54,3.82-3.08,9.48-5.34,16.97-6.78l20.17-3.96v-4.92c0-3.84-1.23-6.6-3.68-8.28-2.46-1.68-6.1-2.52-10.93-2.52s-8.6.96-11.78,2.88c-3.18,1.92-4.89,5.16-5.13,9.72h-9.06c.16-6.96,2.7-12.14,7.61-15.54,4.91-3.4,11.03-5.1,18.36-5.1,7.81,0,13.67,1.58,17.58,4.74,3.9,3.16,5.86,7.58,5.86,13.27v45.85h-8.46v-8.76ZM767.92,1447.36c3.94-3.16,5.92-7.78,5.92-13.87v-7.2l-18.96,3.96c-5.07,1.12-8.76,2.46-11.05,4.02-2.3,1.56-3.44,4.02-3.44,7.38s1.09,5.74,3.26,7.62c2.17,1.88,5.51,2.82,10.03,2.82,5.56,0,10.31-1.58,14.25-4.74Z"/>
      <path d="M801.26,1372.27v71.18c0,2.56.52,4.42,1.57,5.58,1.05,1.16,2.82,1.74,5.31,1.74h8.33v7.92h-9.9c-5.31,0-9.04-1.16-11.17-3.48-2.13-2.32-3.2-5.92-3.2-10.8v-72.14h9.06Z"/>
      <path d="M863.1,1449.94c-4.91,6.8-11.88,10.2-20.9,10.2-7,0-12.48-1.6-16.43-4.8-3.95-3.2-5.92-7.68-5.92-13.44,0-5.28,1.91-9.46,5.74-12.54,3.82-3.08,9.48-5.34,16.97-6.78l20.17-3.96v-4.92c0-3.84-1.23-6.6-3.68-8.28-2.46-1.68-6.1-2.52-10.93-2.52s-8.6.96-11.78,2.88c-3.18,1.92-4.89,5.16-5.13,9.72h-9.06c.16-6.96,2.7-12.14,7.61-15.54,4.91-3.4,11.03-5.1,18.36-5.1,7.81,0,13.67,1.58,17.58,4.74,3.9,3.16,5.86,7.58,5.86,13.27v45.85h-8.46v-8.76ZM856.82,1447.36c3.94-3.16,5.92-7.78,5.92-13.87v-7.2l-18.96,3.96c-5.07,1.12-8.76,2.46-11.05,4.02-2.3,1.56-3.44,4.02-3.44,7.38s1.09,5.74,3.26,7.62c2.17,1.88,5.51,2.82,10.03,2.82,5.56,0,10.31-1.58,14.25-4.74Z"/>
      <path d="M919.81,1407.2c-2.54-2.8-6.26-4.2-11.17-4.2-2.5,0-5.15.6-7.97,1.8-2.82,1.2-5.28,3.34-7.37,6.42-2.09,3.08-3.14,7.26-3.14,12.54v34.93h-9.06v-62.42h8.7v9.6c2.17-3.36,4.99-6.04,8.46-8.04,3.46-2,7.49-3,12.08-3,4.99,0,9.16,1.06,12.5,3.18,3.34,2.12,5.82,4.92,7.43,8.4,1.61,3.48,2.42,7.26,2.42,11.34v40.93h-9.06v-39.97c0-4.88-1.27-8.72-3.81-11.52Z"/>
      <path d="M991.85,1458.7v-10.32c-2.26,3.76-5.21,6.66-8.88,8.7-3.66,2.04-7.91,3.06-12.74,3.06-6.12,0-11.35-1.4-15.7-4.2-4.35-2.8-7.65-6.68-9.9-11.64-2.26-4.96-3.38-10.56-3.38-16.81s1.13-11.84,3.38-16.81c2.25-4.96,5.56-8.84,9.9-11.64,4.35-2.8,9.58-4.2,15.7-4.2,4.75,0,8.92.96,12.5,2.88,3.58,1.92,6.5,4.68,8.76,8.28v-33.73h9.06v86.43h-8.7ZM986.48,1445.19c3.5-4.52,5.25-10.42,5.25-17.71s-1.75-13.18-5.25-17.71c-3.5-4.52-8.6-6.78-15.28-6.78s-11.66,2.26-15.16,6.78c-3.5,4.52-5.25,10.43-5.25,17.71s1.75,13.18,5.25,17.71c3.5,4.52,8.56,6.78,15.16,6.78s11.78-2.26,15.28-6.78Z"/>
    </g>
    <g>
      <path d="M191.42,1240.44h78.71v16.63h-60.17v27.57h55.79v16.03h-55.79v31.02h59.71v16.63h-78.26v-107.9Z"/>
      <path d="M329.11,1339.2c-3.22,3.9-6.89,6.69-11.01,8.39-4.12,1.7-8.75,2.55-13.87,2.55-8.75,0-15.68-2.05-20.81-6.14-5.13-4.09-7.69-9.84-7.69-17.23,0-6.69,2.41-11.94,7.24-15.73,4.83-3.8,12.26-6.59,22.32-8.39l23.22-4.2v-4.94c0-3.8-1.21-6.62-3.62-8.47-2.41-1.85-6.18-2.77-11.31-2.77s-9,1.03-12.21,3.07c-3.22,2.05-4.93,5.27-5.13,9.67h-17.19c.2-8.79,3.52-15.38,9.95-19.78,6.43-4.39,14.57-6.59,24.43-6.59,10.65,0,18.67,2.02,24.05,6.07,5.38,4.05,8.07,9.72,8.07,17.01v56.65h-16.44v-9.14ZM322.32,1332.16c4.12-3.2,6.18-7.94,6.18-14.24v-7.34l-20.06,4.05c-5.23,1.1-9.02,2.42-11.38,3.97-2.36,1.55-3.54,4.07-3.54,7.57,0,3.3,1.18,5.92,3.54,7.87,2.36,1.95,5.85,2.92,10.48,2.92,5.73,0,10.65-1.6,14.78-4.8Z"/>
      <path d="M401.36,1284.03c-12.46.26-19.63,3.34-23.6,6.99-3.97,3.65-5.96,9.87-5.96,18.66v38.66h-17.34v-77.92h16.74v13.79c5.03-9.79,13.07-13.76,24.13-13.76h6.03"/>
      <path d="M437.55,1246.44v23.98h20.21v13.64h-20.21v43.01c0,2.7.58,4.65,1.73,5.84,1.15,1.2,3.14,1.8,5.96,1.8h12.52v13.64h-16.74c-6.94,0-12.14-1.45-15.61-4.35-3.47-2.9-5.2-7.89-5.2-14.99v-44.96h-12.35v-13.64h12.35v-23.98h17.34Z"/>
      <path d="M465.59,1240.44h17.34v40.01c6.33-7.89,14.42-11.84,24.28-11.84,8.95,0,15.83,2.77,20.66,8.32,4.82,5.54,7.24,12.81,7.24,21.8v49.6h-17.19v-47.65c0-5.19-1.31-9.31-3.92-12.36-2.62-3.05-6.59-4.57-11.91-4.57-2.71,0-5.53.63-8.44,1.87-2.92,1.25-5.43,3.5-7.54,6.74-2.11,3.25-3.17,7.57-3.17,12.96v43.01h-17.34v-107.9Z"/>
      <path d="M580.23,1340.4c-8.29-6.49-12.59-15.93-12.89-28.32h18.4c.3,8.19,2.99,14.01,8.07,17.46,5.07,3.45,11.69,5.17,19.83,5.17,7.03,0,12.69-1.4,16.96-4.2,4.27-2.8,6.41-6.84,6.41-12.14,0-2.9-.75-5.32-2.26-7.27-1.51-1.95-4.27-3.72-8.29-5.32-4.02-1.6-9.9-3.15-17.64-4.65-13.37-2.6-23.12-6.37-29.25-11.31-6.13-4.95-9.2-12.16-9.2-21.65,0-5.79,1.66-10.94,4.98-15.44,3.32-4.5,7.94-7.97,13.87-10.42,5.93-2.45,12.77-3.67,20.51-3.67,14.27,0,25.06,3.25,32.35,9.74,7.29,6.49,11.08,15.24,11.39,26.22h-18.1c-.4-6.99-2.66-12.16-6.79-15.51-4.12-3.35-10.4-5.02-18.85-5.02-6.13,0-11.06,1.22-14.78,3.67-3.72,2.45-5.58,5.77-5.58,9.97,0,3.1.63,5.62,1.88,7.57,1.26,1.95,3.77,3.72,7.54,5.32,3.77,1.6,9.42,3.15,16.96,4.65,10.45,2,18.6,4.45,24.43,7.34,5.83,2.9,9.93,6.35,12.29,10.34,2.36,4,3.54,8.89,3.54,14.69,0,6.69-1.81,12.49-5.43,17.38-3.62,4.9-8.65,8.64-15.08,11.24-6.43,2.6-13.87,3.9-22.32,3.9-13.67,0-24.66-3.25-32.95-9.74Z"/>
      <path d="M678.54,1344.82c-5.78-3.54-10.2-8.39-13.27-14.54-3.07-6.14-4.6-13.11-4.6-20.91s1.53-14.76,4.6-20.91c3.06-6.14,7.49-10.99,13.27-14.54,5.78-3.54,12.49-5.32,20.13-5.32,10.15,0,18.32,2.65,24.5,7.94,6.18,5.3,9.88,12.39,11.08,21.28h-17.49c-.9-4.5-2.94-8.04-6.11-10.64-3.17-2.6-7.16-3.9-11.99-3.9-6.54,0-11.53,2.35-15,7.04-3.47,4.7-5.2,11.04-5.2,19.03s1.73,14.34,5.2,19.03c3.47,4.7,8.47,7.04,15,7.04,4.92,0,8.97-1.37,12.14-4.12,3.17-2.75,5.15-6.52,5.96-11.31h17.49c-1.11,9.09-4.82,16.39-11.16,21.88-6.33,5.5-14.48,8.24-24.43,8.24-7.64,0-14.35-1.77-20.13-5.32Z"/>
      <path d="M750.41,1243.8h.41c4.68,0,8.47,3.79,8.47,8.47h0c0,4.68-3.79,8.47-8.47,8.47h-.41c-4.68,0-8.47-3.79-8.47-8.47h0c0-4.68,3.79-8.47,8.47-8.47ZM741.95,1270.42h17.34v77.92h-17.34v-77.92Z"/>
      <path d="M785.91,1344.82c-5.78-3.54-10.23-8.39-13.34-14.54-3.12-6.14-4.68-13.11-4.68-20.91s1.56-14.76,4.68-20.91c3.11-6.14,7.56-10.99,13.34-14.54,5.78-3.54,12.54-5.32,20.28-5.32s14.5,1.75,20.28,5.24c5.78,3.5,10.2,8.42,13.27,14.76,3.06,6.35,4.6,13.61,4.6,21.8v4.5h-58.96c.8,6.59,2.99,11.79,6.56,15.59,3.57,3.8,8.32,5.69,14.25,5.69,4.72,0,8.72-1.02,11.99-3.07,3.26-2.05,5.75-4.92,7.46-8.62h17.19c-2.51,7.89-7.01,14.14-13.5,18.73-6.48,4.6-14.2,6.89-23.15,6.89-7.74,0-14.5-1.77-20.28-5.32ZM826.54,1302.03c-1.01-6.09-3.27-10.86-6.79-14.31-3.52-3.45-8.04-5.17-13.57-5.17s-10.2,1.72-13.72,5.17c-3.52,3.45-5.78,8.22-6.79,14.31h40.86Z"/>
      <path d="M901.64,1288.32c-2.62-3.05-6.59-4.57-11.91-4.57-2.71,0-5.53.63-8.44,1.87-2.92,1.25-5.43,3.5-7.54,6.74-2.11,3.25-3.17,7.57-3.17,12.96v43.01h-17.34v-77.92h16.74v10.94c2.92-3.9,6.46-6.99,10.63-9.29,4.17-2.3,8.92-3.45,14.25-3.45,8.95,0,15.83,2.77,20.66,8.32,4.82,5.54,7.24,12.81,7.24,21.8v49.6h-17.19v-47.65c0-5.19-1.31-9.31-3.92-12.36Z"/>
      <path d="M946.95,1344.82c-5.78-3.54-10.2-8.39-13.27-14.54-3.07-6.14-4.6-13.11-4.6-20.91s1.53-14.76,4.6-20.91c3.06-6.14,7.49-10.99,13.27-14.54,5.78-3.54,12.49-5.32,20.13-5.32,10.15,0,18.32,2.65,24.5,7.94,6.18,5.3,9.88,12.39,11.08,21.28h-17.49c-.9-4.5-2.94-8.04-6.11-10.64-3.17-2.6-7.16-3.9-11.99-3.9-6.54,0-11.53,2.35-15,7.04-3.47,4.7-5.2,11.04-5.2,19.03s1.73,14.34,5.2,19.03c3.47,4.7,8.47,7.04,15,7.04,4.92,0,8.97-1.37,12.14-4.12,3.17-2.75,5.15-6.52,5.96-11.31h17.49c-1.11,9.09-4.82,16.39-11.16,21.88-6.33,5.5-14.48,8.24-24.43,8.24-7.64,0-14.35-1.77-20.13-5.32Z"/>
      <path d="M1025.06,1344.82c-5.78-3.54-10.23-8.39-13.34-14.54-3.12-6.14-4.68-13.11-4.68-20.91s1.56-14.76,4.68-20.91c3.11-6.14,7.56-10.99,13.34-14.54,5.78-3.54,12.54-5.32,20.28-5.32s14.5,1.75,20.28,5.24c5.78,3.5,10.2,8.42,13.27,14.76,3.06,6.35,4.6,13.61,4.6,21.8v4.5h-58.96c.8,6.59,2.99,11.79,6.56,15.59,3.57,3.8,8.32,5.69,14.25,5.69,4.72,0,8.72-1.02,11.99-3.07,3.26-2.05,5.75-4.92,7.46-8.62h17.19c-2.51,7.89-7.01,14.14-13.5,18.73-6.48,4.6-14.2,6.89-23.15,6.89-7.74,0-14.5-1.77-20.28-5.32ZM1065.7,1302.03c-1.01-6.09-3.27-10.86-6.79-14.31-3.52-3.45-8.04-5.17-13.57-5.17s-10.2,1.72-13.72,5.17c-3.52,3.45-5.78,8.22-6.79,14.31h40.86Z"/>
      <path d="M1151.88,1314.92c-1.86-3.1-5-5.69-9.43-7.79-4.43-2.1-10.55-3.8-18.4-5.1-5.33-.9-9.37-1.8-12.14-2.7-2.77-.9-4.68-1.97-5.73-3.22-1.06-1.25-1.58-2.92-1.58-5.02,0-3,1.33-5.34,4-7.04,2.66-1.7,6.11-2.55,10.33-2.55,5.23,0,9.4,1,12.52,3,3.11,2,4.77,5.5,4.98,10.49h16.44c-.2-8.29-3.22-14.76-9.05-19.41-5.83-4.65-14.12-6.97-24.88-6.97-9.45,0-17.07,2.07-22.84,6.22-5.78,4.15-8.67,9.77-8.67,16.86,0,6.59,2.26,11.84,6.79,15.74,4.52,3.9,12.61,6.79,24.28,8.69,5.43.9,9.47,1.82,12.14,2.77,2.66.95,4.45,2.07,5.35,3.37.9,1.3,1.36,3,1.36,5.1,0,3.1-1.46,5.52-4.37,7.27-2.92,1.75-6.84,2.62-11.76,2.62-5.73,0-10.13-1.1-13.19-3.3-2.7-1.94-4.45-5.08-5.24-9.43h-17.12c.91,8.46,4.22,14.8,9.99,18.95,6.18,4.45,14.55,6.67,25.11,6.67s18.34-2.1,24.58-6.29c6.23-4.2,9.35-10.04,9.35-17.53,0-4.5-.93-8.29-2.79-11.39Z"/>
    </g>
  </g>
  <g>
    <path fill="#1822f8" d="M1033.15,684.7c-20.29-197.85-177.46-355.02-375.31-375.31-268.24-27.51-492.08,196.33-464.57,464.57,20.29,197.85,177.46,355.02,375.31,375.31,268.24,27.51,492.08-196.33,464.57-464.57ZM560.82,1078.42l-11.54,8.7c-2.12,1.6-4.99,1.81-7.32.54l-2.29-1.24c-2.79-1.52-4.15-4.76-3.28-7.81l5.9-20.68c.82-2.88,3.43-4.88,6.43-4.92h.89c2.54-.05,4.89,1.34,6.08,3.59l7.04,13.24c1.57,2.95.76,6.59-1.91,8.6ZM771.5,766.74c-5.71,8.24-25.49,47.33-40.68,69.66-5.76,8.46-11.22,4.32-14.84,11.43-.99,1.94-2.23,4.74-3.47,7.63-2.25,5.24-.33,11.35,4.53,14.35l1.42.87c1.83,1.13,2.9,3.05,3.47,5.31,2.14,8.41-4.66,16.5-13.34,16.63l-16.63.79c-3.13.3-5.61,1.14-11.35,4.96-4.89,3.26-15.47,10.07-21.2,13.76-5.18,3.32-8.4,9.18-7.87,15.3,0,.05,0,.09.01.14l1.12,11.83c.44,4.68-.62,6.07-3.62,9.69l-7.69,9.94c-3,3.62-4.43,8.28-3.99,12.96l1.75,18.52c.44,4.68-.99,9.34-3.99,12.96l-28.35,34.64c-3,3.62-7.31,5.9-11.98,6.34l-27.22,2.57c-4.68.44-9.34-.99-12.96-3.99l-15.95-13.2c-3.62-3-8.28-4.43-12.96-3.99l-21.71,1.88c-9.74.92-18.38-6.23-19.3-15.97l-2.89-30.61c-.4-4.21,1.12-8.38,4.14-11.34h0s14.79-11.79,14.79-11.79c9.3-7.67,14.44-18.2,20.47-28.64l8.44-13.04h0c2.61-3.56,6.62-5.84,11.02-6.25l6.66-.63c4.68-.44,20.28-25.08,20.28-25.08,3-3.62,7.31-5.9,11.98-6.34l3.5-.33c4.81-.45,9.22-2.85,12.22-6.64l42.72-53.91h0c5.19-7.84,10.9-41.5,14.66-46.28,3.62-4.6,9.54-8.13,11.96-10.51,1.57-1.54,4.95-5.24,6.52-7.05,3.07-3.56,3.33-7.43,2.78-13.52-1.03-11.48-3.03-22.73-.3-25.74l19.3-20.26c.33-.34.74-.59,1.19-.73l1.84-.54c1-.3,2.09.02,2.78.8l2.14,2.42c.68.76.86,1.85.48,2.8l-1.41,3.51c-.27,1.67.67,3.3,2.25,3.91l7.11,4.53c2.28.9,4.02,2.81,4.72,5.16l5.18,17.7c.69,3.48,6.95,4.49,10.22,1.21,1.72-.93,15.76-17.77,18.58-21.24,2.8-3.45,7.83-4.06,11.39-1.4,1.91,1.43,7.21,5.58,9.28,7.11,4.01,2.98,4.72,8.71,1.55,12.58l-2.26,3.06c-5.16,5.81-3.28,10.97-.22,14.18l3.61,3.28c4.34,4.34,4.56,8.2.12,14.6ZM822.24,529.79c11.06,7.29,31.87,15.28,31.87,15.28,7.19,3.03,16.79-.32,20.01-7.42l2.65-5.07c.77-1.69,2.61-3.78,4.68-4.37h0l3.41-.9c5.6-1.48,11.55.42,15.26,4.87h0c1.66,2,2.76,4.41,3.16,6.97l5.14,32.51c.54,3.39-.74,6.81-3.37,9.02l-.11.09c-2.45,2.06-3.77,5.11-3.58,8.28.05.82.1,1.69.16,2.59.38,6.38-5.24,11.47-11.55,10.46l-6.82-1.1c-2.29-.37-4.58.7-5.77,2.69l-5.85,9.7c-3.93,6.43.66,11.64,4.96,19.93l.11.2c2.18,4.18.1,15.19-.75,19.77-1.53,8.28-14.42,50.76-41.21,81.11h0s-12.84,12.22-12.84,12.22c-.75.78-1.92.97-2.88.47l-3.3-1.75c-.95-.5-1.46-1.58-1.24-2.64l.71-3.39c.21-.98-.21-1.99-1.06-2.53l-2.57-1.69c-1.41-.78-3.13-.89-4.56-.16-1.95,1.01-2.81,2.84-5.02,1.82-2.68-1.23-3.13-1.75-5.67-2.95-5.14-2.43-5.03-6.7-2.93-10.24l15.15-26.66h0c8.7-22.16.9-33.8-9.89-41.39l-4.97-3.5c-2.96-2.08-6.32-3.53-9.86-4.25l-4.16-.84c-4.28-.87-8.16-3-11.43-5.9-2.92-2.59-6.39-4.49-10.15-5.56l-8.1-2.31c-7.34-2.09-11.88-9.43-10.49-16.93l.54-2.93c.76-4.08,3.19-7.65,6.7-9.85l4.95-3.1c1.17-.73,2.43-1.29,3.75-1.67l7.68-2.22h0c3.49-1.28,5.76-4.67,5.61-8.38l-.39-9.34c-.13-3.17.14-6.34.79-9.44l2.21-10.4c1.92-9.04.47-18.46-4.08-26.5l-9.7-17.13c-7.38-13.04-17.01-24.66-28.44-34.34l-51.65-43.73c-2.81-2.38-4.41-6.06-6.1-9.63-1.86-3.92-4.87-7.18-8.63-9.36l-7.73-4.48s0,0,0,0c-4.25-4.82-1.23-12.63,5.57-13.01,1.95-.11,3.85.63,5.37,1.85l16.31,13.12c3.91,3.15,8.6,5.17,13.58,5.85l6.58.9c7.31,1,13.98,4.7,18.7,10.36l26.56,31.81c2.58,3.09,4.46,6.71,5.51,10.59l1.52,5.65c1.73,6.41,6.36,11.63,12.52,14.11l9.26,3.72c.88.35,1.65.95,2.21,1.73l3.79,5.25c1.46,2.03,4.22,2.87,6.44,1.7,2.86-1.5,3.56-4.99,1.84-7.41-2.05-2.88-5.02-7.06-7.55-10.61-2.2-3.1-.31-7.42,3.46-7.9l2.22-.28s.03,0,.05,0c2.06-.24,4.01,1.03,4.9,2.9l14.3,29.86c3.5,7.24,12.11,14.46,14.21,15.85Z"/>
    <path fill="#1822f8" d="M998.5,341.58c-101.14-101-237.7-154.17-382.64-150.88-132.19,3-243.6,62.43-341,156.8-10.59,10.26-16.64,24.32-16.64,39.06h0c0,4.51,5.45,6.77,8.64,3.58l8.53-8.58c189.15-184.25,489.17-183.55,678.35,1.84,186.86,183.11,187.84,483.51,18.29,667.1-10.65,11.53-21.46,22.08-21.46,22.08-3.21,3.5-.63,8.64,3.58,8.64,13.6,0,28.6-5.82,37.92-15.5,98.05-101.83,154.16-210.49,157.3-341.45,3.47-144.5-48.99-280.93-150.88-382.68Z"/>
  </g>
</svg>
