<?xml version="1.0" encoding="UTF-8"?><svg role="img" id="Layer_1" xmlns="http://www.w3.org/2000/svg" width="160" height="65" viewBox="0 0 612 249"><title>GeoNet logo</title><path d="M2.35,116.05c.09,.08,.08,.26-.03,.55-.08-.08-.08-.26,.03-.55Z"/><g><rect fill="#d52e25" x="29.83" y="155.16" width="5.4" height="5.4"/><rect fill="#d52e25" x="40.2" y="155.16" width="5.4" height="5.4"/><rect fill="#d52e25" x="50.57" y="155.16" width="5.4" height="5.4"/><rect fill="#d52e25" x="60.94" y="155.16" width="5.4" height="5.4"/><rect fill="#d52e25" x="71.31" y="155.16" width="5.4" height="5.4"/><rect fill="#d52e25" x="81.67" y="155.16" width="5.4" height="5.4"/><rect fill="#d52e25" x="92.04" y="155.16" width="5.4" height="5.4"/><rect fill="#d52e25" x="102.41" y="155.16" width="5.4" height="5.4"/><rect fill="#d52e25" x="112.78" y="155.16" width="5.4" height="5.4"/><rect fill="#d52e25" x="123.15" y="155.16" width="5.4" height="5.4"/><rect fill="#d52e25" x="133.52" y="155.16" width="5.4" height="5.4"/><rect fill="#d52e25" x="143.88" y="155.16" width="5.4" height="5.4"/><rect fill="#d52e25" x="154.25" y="155.16" width="5.4" height="5.4"/><rect fill="#d52e25" x="164.62" y="155.16" width="5.4" height="5.4"/><path fill="#d52e25" d="M4,119.77S30.77,21.67,297.33,21.67c104.67,0,285,40.67,285,102.83,0,72.19-161.2,113.42-279.67,116.08l.42,1.92c153.25,7.16,308.92-45.84,308.92-114.5,0-100.33-216.67-121-313.33-121C138.91,7,10,53.01,4,119.77Z"/></g><g><path fill="#144c3f" d="M46.5,92.54c10.47-3.7,20.52-2.43,30.78,1.23l-2.53,8.33c-5.39-2.14-10.67-3.46-16.32-2.77-8.5,1.03-15.7,6.98-17.93,15.05-2.49,9.01,.24,18.06,6.99,23.07,6.08,4.52,13.74,3.94,20.51,2.17l.1-21.89,10.67-.13v28.91c-4.26,2.29-17.04,5.49-29.47,2.51-12.43-2.99-20.46-12.95-21.34-25.52-.99-14.14,5.47-25.03,18.54-30.97Z"/><path fill="#144c3f" d="M170.71,128.04c.01,16.5-11.33,21.87-20.66,21.87-10.38,0-21.06-5.12-21.06-22.05s11.89-22.05,20.86-22.05c10.03,0,20.85,6.02,20.86,22.23Zm-13.47-11.84c-4.8-4.73-12.06-4.01-15.36,1.81-3.61,6.35-3.63,13.1-.34,19.53,3.62,7.07,12.83,7.21,16.63,.2,3.82-7.04,3.91-14.31-.93-21.54Z"/><path fill="#144c3f" d="M96.21,128.92c.02,4.89,.87,8.86,4.98,11.4,6.32,3.9,11.59,.83,16.99-2.86l3.87,6.21c-7.17,5.74-14.91,8.22-23.79,5.42-7.25-2.28-11.79-9.39-12.4-18.13-.46-6.68,.6-12.91,5.13-18.14,5.53-6.39,12.95-8.3,20.54-6.09,12.27,3.57,12.23,17.78,11.99,22.18m-22.27-6.59h12.3c0-5.32-2.9-9.36-7.33-9.44-4.95-.09-9.4,3.86-9.81,9.44,1.45,0,2.89,0,4.84,0Z"/><g><path fill="#144c3f" d="M244.21,122.14c1.45,0,2.89,0,4.84,0h11.98c-.07-5.23-2.95-9.18-7.33-9.26-1.74-.03-3.41,.45-4.88,1.31-2.54,1.63-4.36,4.47-4.62,7.95Z"/><path fill="#144c3f" d="M353.62,67.28l4.98-.13,5.75,53.57,3.16-45.75,4.97-.15,6.05,47.17,4.46-38.7,4.95-.15,6.56,37.09,5.89-25.22,4.72-.45,6.17,13.82h39.18l-101.48-55.36,2.4,54.67,2.23-40.42Zm-.67,5.56c-.13-.2-.19-.5-.15-.87,.15,.21,.18,.49,.15,.87Z"/><path fill="#144c3f" d="M459.63,113.39h-51.4l-4.65-10.01-6.98,29.85-4.9-.13-5.7-32.23-4.85,42.08-4.96,.03-5.44-42.38-3.37,48.74-4.98,.09-5.49-51.13-3.31,60.07-4.99-.03-3.45-78.34-6.12,62.78-4.97,.05-4.92-41.4-3.85,58.92h-72.83v-5h67.76l5.83-80.36,4.98-.11,5.27,44.41,6.75-69.22c-1.65,1.94-16.59,18.7-43.18,18.7-28.22,0-42.44-18.89-42.44-18.89l-82.44,43.78v72.7h381.76l-97.13-52.98Zm-184.75-6.41h6.87v-15.52h10.01v15.34h9.75v7.4h-9.88l-.47,23.11c0,2.97,2.03,3.53,4.15,3.16l5.43-1.23,1.87,6.54c-1.06,1.25-7.64,3.94-13.87,3.31-4.39-.83-7.2-2.64-7.58-9.83l.26-24.94h-6.55v-7.34Zm-89.39,53.58h-5.4v-5.4h5.4v5.4Zm2.2-10.32l-9.9,.18v-54.71l11.25-5.75,26.68,42.92v-41.54h10.69s-.13,55.42-.13,55.42l-11.2,3.49-27.33-44.11-.06,44.11Zm8.1,10.32h-5.4v-5.4h5.4v5.4Zm10.3,0h-5.4v-5.4h5.4v5.4Zm10.3,0h-5.4v-5.4h5.4v5.4Zm10.3,0h-5.4v-5.4h5.4v5.4Zm10.3,0h-5.4v-5.4h5.4v5.4Zm10.3,0h-5.4v-5.4h5.4v5.4Zm-1.52-11.48c-7.25-2.28-11.79-9.39-12.4-18.13-.46-6.68,.6-12.91,5.13-18.14,1.75-2.02,3.68-3.59,5.75-4.72,4.56-2.61,9.78-3.1,15.09-1.55,12.27,3.57,12.23,17.78,11.99,22.18h-.3c0,.06,0,.12,0,.18h-26.99c.04,4.83,.91,8.73,4.98,11.23,5.03,3.11,9.39,1.79,13.69-.74,1-.6,1.99-1.26,2.99-1.94v.02c.11-.07,.21-.13,.31-.2l3.87,6.21c-1.42,1.14-2.86,2.14-4.33,3-6.04,3.65-12.52,4.88-19.77,2.59Z"/></g></g></svg>
