<svg xmlns="http://www.w3.org/2000/svg" width="106" height="44" viewBox="0 0 106 44">
    <path d="M27.534 19.307c4.848 5.386 7.24 10.245 5.623 12.215-2.197 2.693-11.31-1.247-20.36-8.8-1.098-.919-2.132-1.838-3.102-2.823l-.194-.198s-.517 1.183-.646 1.774l-.194.788v.065c-.065.263-.065.46-.13.723-.193 1.576 0 3.415 1.358 4.4h.065c2.262 1.707 
5.041 2.364 7.691 2.101-5.494 4.269-10.6 5.91-13.12 3.678-2.457-2.167-1.616-7.421 1.615-13.266.13-.263.323-.525.453-.788v-.066c.194-.262.387-.59.581-.985.065-.131.194-.262.259-.394l.065-.065C1.81 11.756-1.228 6.173.518 4.072c1.55-1.905 6.527-.526 12.538 
3.152-2.068.59-3.943 1.839-5.43 3.612-.258.328-.58.722-.775 1.116-.064.132-.129.197-.194.329l-.064.065-.13.329c-.193.788.324 2.035 1.94 3.874.129-.131.193-.262.323-.46.194-.262.323-.46.517-.722l.064-.066.065-.065.065-.066.064-.066c.323-.46.711-.919 
1.099-1.379.194-.262.388-.525.646-.722.84-.985 1.745-1.97 2.65-2.824.517-.525 1.034-.985 1.552-1.445.323-.262.581-.525.904-.788l.13-.131c.258-.263.581-.46.84-.657 5.235-4.071 10.341-5.648 12.733-3.48 2.65 2.298 1.486 8.274-2.392 14.579 
0-.657-.064-1.314-.193-1.97-.388-2.168-1.358-4.466-3.038-5.91-2.456-2.102-7.692-.067-11.764 4.662-.84.985-1.81 2.364-1.81 2.364l-.581.985c.064.066.194.131.258.263 7.369 6.633 12.54 8.077 14.414 6.96.194-.13.388-.327.581-.524 0 0 
0-.066.065-.066.065-.066.065-.131.13-.131.969-1.84 1.615-3.678 1.81-5.583zM33.093 0s-.065 0-.194.197c-.259.263-.13.854.129.985.259.197 14.413 14.973 2.715 31.128-.259.329-.453.657-.776.92-11.376 12.018-24.56 6.567-31.283 
3.218-.97-.46-2.068-.132-2.585.46-.647.788-1.034 1.247-1.034 1.247 5.558 5.254 25.66 10.508 36.97-3.02l.388-.592C46.99 20.883 40.138 5.91 33.093 0zm16.029 35.069h2.068l-.646 3.743h.71l.647-3.743h2.069l.129-.591h-4.912l-.065.59zm7.433 
3.743h4.201l.13-.591H57.33l.259-1.314h3.361l.13-.59h-3.362l.194-1.183h3.49l.13-.59H57.33l-.775 4.268zm17.516-3.218-.065.394c-.065.394-.323.525-.71.525H70.58l.259-1.444h2.65c.452 0 .646.131.582.525zm-.323-1.116h-3.49l-.776 4.334h.71l.26-1.642h2.65c1.292 0 
1.486-.525 1.615-1.51.259-.985-.194-1.182-.97-1.182zm8.273 3.218c-.065.328-.194.59-.905.59h-1.94c-.71 0-.775-.196-.71-.59l.582-3.218h-.711l-.582 3.218c-.13.919.258 1.182 1.357 1.182h1.94c1.098 0 1.615-.263 1.744-1.182l.582-3.218h-.71l-.647 
3.218zm10.923-.395 1.616-2.167.905 2.167h-2.521zm1.357-2.823-3.296 4.334h.775l.647-.92h3.232l.387.92h.776l-1.81-4.334h-.71zm10.794 1.379-.258 1.576c-.13.657-.517.788-1.035.788h-2.262c-.517 0-.905-.131-.775-.788l.258-1.576c.13-.657.517-.788 
1.034-.788h2.263c.581-.066.904.131.775.788zm-.582-1.445h-2.391c-1.163 0-1.616.525-1.81 1.642l-.194 1.182c-.194 1.116.065 1.642 1.293 1.642h2.391c1.164 0 1.616-.526 
1.81-1.642l.194-1.182c.194-1.117-.13-1.642-1.293-1.642zm-25.918-1.773-.13.525h4.978l.129-.525h-4.977zm-29.538-2.233v.591H106v-.591H49.057zm18.486-3.02v.13h1.163v-.13l.97-5.386v-.131h-1.164V22l-.97 5.385zm-3.361-3.547v.131h1.034v-.131l.064-.526c.065-.46 
0-.788-.193-1.05-.259-.329-.711-.46-1.358-.46h-2.65c-1.422 0-2.133.657-2.391 2.167l-.259 1.445c-.129.788-.064 1.379.194 1.707.259.329.776.526 1.487.526h2.585c1.616 0 2.068-.657 
2.262-1.642l.065-.46v-.131h-1.099v.131l-.064.394c-.065.526-.259.723-1.164.723H60.24c-.388 0-.582-.066-.711-.197-.13-.132-.13-.329-.065-.657l.324-1.97c.129-.788.581-.92 1.163-.92h2.456c.323 0 .646 0 .776.132.064.131.129.262.064.525l-.064.263zm-11.247 
3.743c.84 0 2.263 0 2.521-1.576l.065-.328c.064-.46 0-.788-.194-1.051-.259-.328-.84-.526-1.745-.526h-2.069c-.517 0-.84-.065-.904-.197-.065-.065-.065-.197 0-.394.129-.656.387-.722 1.745-.722h1.228c.452 0 .84 0 
.97.131.128.132.128.329.064.723v.131h1.099v-.131l.064-.263c.065-.525 0-.854-.194-1.116-.323-.394-.905-.526-1.939-.526H52.16c-1.422 0-2.392.263-2.65 1.642-.13.591-.065.985.194 1.248.387.46 1.292.525 2.585.525h1.357c.453 0 .647.066.776.132.065.065.065.197 0 
.46-.13.59-.259.787-1.228.787h-2.198c-.387 0-.646-.065-.775-.197-.065-.065-.065-.197-.065-.328l.065-.46v-.131h-1.099v.131l-.065.46c-.064.46 0 .788.194 1.05.388.46 1.099.526 1.68.526h2.004zm43.047-3.743v.131h1.034v-.131l.064-.526c.065-.46 
0-.788-.193-1.05-.259-.329-.711-.46-1.358-.46h-2.65c-1.422 0-2.133.657-2.391 2.167l-.259 1.445c-.129.788-.064 1.379.194 1.707.259.329.776.526 1.487.526h2.65c1.616 0 2.068-.657 
2.262-1.642l.065-.46v-.131h-1.1v.131l-.064.394c-.064.526-.258.723-1.163.723h-2.456c-.388 0-.582-.066-.711-.197-.13-.132-.13-.329-.065-.657l.323-1.97c.13-.788.582-.92 1.164-.92h2.456c.323 0 .646 0 .775.132.065.131.13.262.065.525l-.13.263zm4.266-1.905-.97 
5.385v.132h5.559v-.132l.129-.722v-.131h-4.395l.258-1.38h4.201v-.13l.13-.723V24.1h-4.201l.193-1.247h4.396v-.132l.129-.722v-.131h-5.494l.065.065zm-14.22 4.269-3.62-4.269-.064-.065h-1.357V22l-.97 5.385v.131h1.163v-.13l.711-4.204 3.62 
4.269.065.065h1.357v-.13l.97-5.386v-.131h-1.164V22l-.711 4.203zm-8.08-3.35h.13v-.13l.13-.723v-.131h-5.495V22l-.97 5.385v.131h5.56v-.13l.129-.723v-.132h-4.395l.258-1.379h4.201v-.131l.13-.722v-.132h-4.202l.194-1.248 4.33-.065zM54.552 18.52H59.4c4.524 0 
6.528-.197 7.174-4.006l.647-3.809h-9.05l-.452 2.759h4.977l-.065.394c-.193 1.313-1.292 1.444-2.326 1.444h-4.266c-2.004 0-2.456-.525-2.068-2.758l.258-1.642c.388-2.298 1.034-2.758 3.038-2.758h4.33c1.293 0 2.004.197 1.745 
1.51h3.943l.065-.393c.452-2.561.129-4.269-4.46-4.269h-6.011c-3.62 0-5.946.92-6.593 4.794l-.71 3.94c-.647 3.875 1.357 4.794 4.976 4.794zm46.925-13.594h-5.624c-5.041 0-5.623 1.84-6.01 4.269-.582 3.284 0 4.006 6.01 4.006 5.171 0 5.624.066 5.43 1.248-.194 
1.05-1.034 1.116-1.94 1.116H94.43c-1.163 0-1.68-.131-1.486-1.51h-4.007l-.13.92c-.517 2.889.84 3.611 4.525 3.611h4.847c5.365 0 6.658-.591 7.24-4.203.646-3.875-.712-4.269-6.981-4.269-4.33 0-4.783 0-4.59-1.182.13-.722.776-1.05 1.681-1.05h4.46c1.874 0 
1.874.394 1.745 1.379h4.007l.065-.394c.453-2.365.323-3.94-4.33-3.94zm-17.128.132-1.616 9.325h-.259c-.13 0-.13-.066-.13-.066A2919.05 2919.05 0 0 0 77.82 6.83c-.324-.526-1.164-1.708-3.038-1.708H69.159s.323.132.646.591c.258.394.388 1.642.323 2.102l-1.874 
10.573h4.007l1.616-9.325h.194c.064 0 .129.065.129.065s4.33 7.093 4.654 7.618c.646 1.051 1.874 1.642 3.037 1.642h4.137l2.327-13.331h-4.007z" fill="#A71930" fill-rule="nonzero"/>
</svg>
