<?xml version="1.0" encoding="UTF-8"?>
<svg xmlns="http://www.w3.org/2000/svg" width="163.08" height="65" viewBox="0 0 431.21 171.87" class="img-fluid">  
  <path fill="#d0001f" stroke-width="0px" d="M42.81,118.9s0,0,0,0"/>
  <path fill="#d0001f" stroke-width="0px" d="M56.11,85.39l-7.85-9.48c-7.15-9.97-7.91-17.05.63-25.37,7.06-6.87,13.67-10.36,22.92-12.74C11.13-3.31-.51,26.34,44.12,80.76l.1.12c-6.74,9.89-36.81,55.66-24.47,68.45,13.87,14.37,64.15-14.77,64.15-14.77,0,0-20.37.65-33.82-13.34-11.26-11.7-2.49-27.55.68-32.41l.82.99c1.45,1.91,2.95,3.8,4.51,5.67.2.22.39.45.57.69,45.65,54.3,132.43,91.96,74.89.52-11.13,39.94-40.82,33.07-75.44-11.29"/>
  <path fill="#d0001f" stroke-width="0px" d="M53.66,69.81c-2.76,4.21,1.78,9.44,6.33,7.28,1.92-.91,4.32-2.46,7.41-5.04,10.1-8.42,53.39-38.69,64.79,5.51,0,0,29.63-45.92,15.55-55.18-12.25-8.06-80.7,27.02-94.07,47.43"/>
  <polygon fill="#d0001f" stroke-width="0px" points="199.53 148.88 216.59 148.88 217.02 146.44 202.81 146.44 203.73 141.21 217.29 141.21 217.72 138.77 204.16 138.77 204.99 134.05 219.11 134.05 219.54 131.61 202.57 131.61 199.53 148.88"/>
  <path fill="#d0001f" stroke-width="0px" d="M268.83,131.61h-14.02l-3.04,17.27h2.85l1.16-6.56h10.73c5.15,0,5.87-2.08,6.54-5.87.72-4.11-1.08-4.83-4.21-4.83M270.23,136.22l-.28,1.59c-.26,1.5-1.22,2.07-2.92,2.07h-10.82l1.03-5.83h10.64c1.89,0,2.67.43,2.36,2.17"/>
  <polygon fill="#d0001f" stroke-width="0px" points="169.8 134.05 178.23 134.05 175.62 148.88 178.47 148.88 181.08 134.05 189.51 134.05 189.94 131.61 170.24 131.61 169.8 134.05"/>
  <path fill="#d0001f" stroke-width="0px" d="M351.56,131.61l-13.3,17.27h3.25l2.69-3.52h13.01l1.45,3.52h3.25l-7.21-17.27h-3.15ZM346.07,142.92l6.59-8.58,3.56,8.58h-10.15Z"/>
  <path fill="#d0001f" stroke-width="0px" d="M302.12,144.37c-.24,1.4-.77,2.26-3.71,2.26h-7.83c-2.95,0-3.17-.86-2.92-2.26l2.25-12.76h-2.85l-2.26,12.78c-.64,3.64,1.12,4.67,5.42,4.67h7.69c4.29,0,6.42-1.04,7.06-4.67l2.25-12.78h-2.85l-2.25,12.76Z"/>
  <path fill="#d0001f" stroke-width="0px" d="M392.77,131.43h-9.6c-4.71,0-6.63,2.19-7.39,6.54l-.8,4.56c-.76,4.35.38,6.54,5.08,6.54h9.6c4.71,0,6.63-2.19,7.39-6.54l.8-4.56c.77-4.35-.38-6.54-5.08-6.54M395.15,137.11l-1.1,6.26c-.47,2.66-2.1,3.25-4.19,3.25h-9.14c-2.09,0-3.51-.59-3.04-3.25l1.11-6.26c.47-2.66,2.1-3.25,4.19-3.25h9.14c2.09,0,3.51.59,3.04,3.25"/>
  <polygon fill="#d0001f" stroke-width="0px" points="287.97 126.54 308.08 126.54 308.48 124.38 288.37 124.38 287.97 126.54"/>
  <polygon fill="#d0001f" stroke-width="0px" points="247.63 113.19 247.51 113.85 252.19 113.85 252.27 113.38 256.12 91.55 256.24 90.89 251.56 90.89 251.48 91.35 247.63 113.19"/>
  <path fill="#d0001f" stroke-width="0px" d="M233.78,98.86l-.12.66h4.32l.08-.46.38-2.15c.32-1.82.03-3.29-.86-4.34-1.07-1.27-2.98-1.91-5.68-1.91h-10.96c-5.85,0-8.81,2.61-9.89,8.72l-1.02,5.79c-.58,3.26-.28,5.45.92,6.89,1.15,1.36,3.13,2.03,6.05,2.03h10.82c6.61,0,8.44-2.68,9.15-6.7l.31-1.77.12-.66h-4.5l-.08.47-.29,1.65c-.39,2.24-1.06,2.89-4.68,2.89h-10.03c-1.55,0-2.51-.27-3-.86-.45-.53-.57-1.43-.35-2.65l1.4-7.95c.54-3.08,2.32-3.7,4.82-3.7h9.94c1.42,0,2.64.05,3.14.64.33.4.4,1.1.22,2.14l-.23,1.3Z"/>
  <path fill="#d0001f" stroke-width="0px" d="M187.68,114.08c3.48,0,9.32,0,10.44-6.38l.24-1.37c.31-1.77.05-3.12-.8-4.13-1.18-1.41-3.42-2.06-7.03-2.06h-8.48c-2.18,0-3.38-.21-3.76-.66-.23-.27-.25-.75-.09-1.7.45-2.56,1.46-2.97,7.21-2.97h3.04c.74,0,1.45-.02,2.07-.04,1.9-.06,3.41-.11,4,.56.41.46.5,1.38.27,2.81l-.1.65h4.48l.08-.47.19-1.06c.35-2.01.11-3.42-.76-4.46-1.23-1.47-3.69-2.12-7.98-2.12h-6.17c-5.91,0-9.77,1.12-10.76,6.7-.42,2.37-.19,3.97.73,5.06,1.62,1.93,5.26,2.07,10.63,2.07h5.44c1.8,0,2.76.18,3.1.58.24.28.27.83.11,1.76-.42,2.38-1.18,3.12-5.12,3.12h-8.89c-1.7,0-2.75-.24-3.14-.7-.24-.28-.29-.7-.17-1.38l.32-1.82.12-.66h-4.5l-.08.47-.33,1.88c-.32,1.83-.05,3.29.83,4.33,1.5,1.78,4.49,2.01,6.92,2.01h7.95Z"/>
  <path fill="#d0001f" stroke-width="0px" d="M364.18,98.86l-.12.66h4.32l.08-.46.38-2.15c.32-1.82.03-3.29-.86-4.34-1.07-1.27-2.98-1.91-5.68-1.91h-10.97c-5.85,0-8.81,2.61-9.88,8.72l-1.02,5.79c-.58,3.26-.28,5.45.92,6.89,1.14,1.36,3.13,2.03,6.05,2.03h10.82c6.62,0,8.44-2.68,9.15-6.7l.31-1.77.12-.66h-4.5l-.08.47-.29,1.65c-.4,2.24-1.06,2.89-4.67,2.89h-10.03c-1.55,0-2.51-.27-3-.86-.45-.53-.57-1.43-.35-2.65l1.4-7.95c.54-3.08,2.32-3.7,4.82-3.7h9.95c1.42,0,2.64.05,3.14.64.33.4.41,1.1.22,2.14l-.23,1.3Z"/>
  <polygon fill="#d0001f" stroke-width="0px" points="381.79 91.35 377.94 113.19 377.82 113.85 400.54 113.85 400.62 113.38 401.15 110.38 401.27 109.72 383.23 109.72 384.22 104.11 401.44 104.11 401.52 103.65 402.05 100.64 402.17 99.98 401.5 99.98 384.95 99.98 385.82 95.02 403.27 95.02 403.74 95.02 403.83 94.55 404.36 91.55 404.47 90.89 381.87 90.89 381.79 91.35"/>
  <polygon fill="#d0001f" stroke-width="0px" points="323.35 108.34 308.4 91.08 308.23 90.89 302.77 90.89 302.69 91.35 298.83 113.19 298.72 113.85 303.39 113.85 303.47 113.38 306.47 96.4 321.42 113.65 321.58 113.85 327.05 113.85 327.13 113.38 330.98 91.55 331.1 90.89 326.43 90.89 326.34 91.35 323.35 108.34"/>
  <polygon fill="#d0001f" stroke-width="0px" points="290.31 95.02 290.78 95.02 290.86 94.55 291.39 91.55 291.5 90.89 268.91 90.89 268.82 91.35 264.97 113.19 264.86 113.85 287.57 113.85 287.66 113.38 288.18 110.38 288.3 109.72 270.26 109.72 271.25 104.11 288.47 104.11 288.55 103.64 289.08 100.64 289.2 99.98 288.53 99.98 271.98 99.98 272.85 95.02 290.31 95.02"/>
  <path fill="#d0001f" stroke-width="0px" d="M195.05,77.23h20.17c18.88,0,27.17-.76,29.94-16.47l2.74-15.56h-37.61l-2,11.33h20.85l-.28,1.59c-.93,5.29-5.43,5.97-9.81,5.97h-17.9c-8.46,0-10.29-2.04-8.64-11.41l1.2-6.8c1.65-9.36,4.2-11.4,12.66-11.4h18.2c5.36,0,8.34.68,7.38,6.12h16.46l.31-1.74c1.88-10.65.45-17.52-18.59-17.52h-25.23c-15.11,0-24.76,3.78-27.58,19.79l-2.88,16.31c-2.82,16.01,5.5,19.79,20.61,19.79"/>
  <path fill="#d0001f" stroke-width="0px" d="M391.16,21.34h-23.41c-21.15,0-23.4,7.63-25.15,17.52-2.37,13.45-.03,16.47,25.19,16.47,21.6,0,23.51.3,22.67,5.06-.74,4.23-4.44,4.61-7.99,4.61h-20.54c-4.83,0-7.1-.45-6.15-6.27h-16.77l-.66,3.78c-2.09,11.86,3.52,14.73,18.78,14.73h20.32c22.28,0,27.69-2.42,30.29-17.14,2.81-15.94-2.95-17.52-29.02-17.45-17.99.07-20-.08-19.16-4.84.52-2.95,3.31-4.23,7.09-4.23h18.58c7.7,0,7.87,1.66,7.16,5.66h16.77l.31-1.74c1.69-9.59,1.04-16.16-18.3-16.16"/>
  <path fill="#d0001f" stroke-width="0px" d="M319.74,21.94l-6.74,38.23s-.51.05-1.04-.09c-.53-.13-.66-.4-.66-.4-.91-1.39-17.54-28.57-18.88-30.73-1.35-2.17-4.78-7.01-12.72-7.01h-17.29s-6.24,0-6.24,0c0,0,1.47.61,2.57,2.45,1.03,1.72,1.7,6.86,1.42,8.56l-7.69,43.67h16.77l6.75-38.3s.52-.09.89-.06c.38.04.5.23.5.23,0,0,18.06,29.25,19.34,31.36,2.69,4.41,7.79,6.85,12.77,6.77,4.12-.06,17.39,0,17.39,0l9.64-54.68h-16.77Z"/>
</svg>
