<?xml version="1.0" encoding="utf-8"?>
<!-- Generator: Adobe Illustrator 26.5.0, SVG Export Plug-In . SVG Version: 6.00 Build 0)  -->
<svg version="1.1" id="Layer_1" xmlns="http://www.w3.org/2000/svg" xmlns:xlink="http://www.w3.org/1999/xlink" x="0px" y="0px"
	 width="75" height="75" viewBox="0 0 2000 1800" xml:space="preserve">
<g>
	<g>
		<path fill="#043150" d="M835.7468,521.9946l-0.1416,1.3396h66.8947l-0.0988-1.2969c-1.2358-16.7426-1.7735-62.7542-1.7735-82.529
			V202.5515c0-9.5126,0-23.7413,0.5377-36.0742c48.9259,0.0095,87.2171,0.4904,127.7388,1.0045l11.63,0.1462l0.0377-1.1835
			c0.6935-20.8976,2.1128-36.0979,4.7539-50.8128l0.264-1.4667l-1.4904,0.0473c-64.2205,2.0044-116.2118,2.8627-173.8439,2.8627
			c-69.8189,0-122.5132-1.3773-169.0527-2.8627l-1.2453-0.0378v1.2449c0,14.4599-0.4103,35.0179-2.377,50.8361l-0.1698,1.3773
			l5.7728-0.0755c43.3278-0.5519,84.2693-1.0705,135.5767-1.0801c1.1461,31.8345,1.1461,68.503,1.1461,92.8717v124.5127
			C839.9064,416.3846,838.8923,492.9381,835.7468,521.9946z"/>
		<path fill="#043150" d="M970.7484,398.4112c0,36.1876,12.7902,69.833,36.0178,94.7299
			c24.7366,26.5239,58.3915,40.5453,97.319,40.5453c82.0996,0,141.6843-62.6786,141.6843-149.0325
			c0-67.2249-46.0063-135.2752-133.9307-135.2752C1030.083,249.3787,970.7484,312.0573,970.7484,398.4112z M1027.2579,389.8134
			c0-53.1187,34.5698-91.6737,82.1943-91.6737c48.4683,0,79.7887,36.8807,79.7887,93.9613c0,54.656-33.7916,92.8289-82.1752,92.8289
			C1056.3477,484.9299,1027.2579,450.2613,1027.2579,389.8134z"/>
		<path fill="#043150" d="M1304.0903,521.9476l-0.1653,1.3533h63.7961l-0.1694-1.358c-1.9525-15.743-2.3632-38.8477-2.3632-55.4628
			v-71.9836l121.9567,135.2939l0.4573,0.5095l61.0658-12.0357l-1.5896-1.5987c-18.0818-18.1952-39.7576-42.597-62.7065-68.437
			c-12.965-14.592-26.3639-29.6839-39.3708-43.9175l-24.7603-26.7032l117.3628-124.7627l2.1697-2.3014l-3.1505,0.2733
			c-23.6423,2.0659-56.3776,2.2876-69.3521,2.2876h-0.5894l-0.3633,0.4622c-11.1727,14.276-36.8429,43.5824-61.6692,71.9268
			c-14.9503,17.0681-29.1271,33.2542-39.4606,45.3796V170.5708c0-20.8503,0.6228-48.3363,2.3632-62.9519l0.198-1.6411l-1.6273,0.316
			c-15.2427,2.9475-34.6027,5.3152-60.9333,7.4422l-1.2499,0.0989l0.1511,1.2499c2.6315,21.8784,4.1409,56.3162,4.1409,94.4799
			v219.0728C1308.2312,450.6384,1307.6935,492.0137,1304.0903,521.9476z"/>
		<path fill="#043150" d="M1662.3525,531.3942c35.1876,0,67.3992-16.5727,84.9482-43.474
			c3.9146,25.8354,22.1001,42.3234,47.1199,42.3234c14.4691,0,25.7881-3.9993,36.1357-8.0933l0.6506-0.2546l5.7301-39.2343
			l-1.8441,0.5896c-9.7671,3.141-16.9922,4.5416-23.4253,4.5416c-5.4755,0-9.3523-1.264-11.8612-3.8672
			c-3.1787-3.3013-4.5088-8.9653-4.1787-17.8318l3.5703-113.4673c0.9244-31.5609-7.7062-57.6321-24.9583-75.3936
			c-17.9498-18.4875-44.3794-27.8585-78.5485-27.8585c-33.9568,0-66.7817,8.7157-97.569,25.9014l-0.8254,0.4622l13.1818,48.4496
			l1.415-1.0282c20.9869-15.2003,50.3739-25.024,74.8651-25.024c20.308,0,34.6595,4.6172,43.8702,14.1107
			c9.1306,9.4088,13.276,23.718,12.6722,43.6912l-0.514,7.4044c-7.2487-0.5378-14.7145-1.0659-22.0811-1.0659
			c-91.2825,0-145.7828,33.6454-145.7828,90.0043C1574.9235,500.3379,1609.2433,531.3942,1662.3525,531.3942z M1718.9141,398.4299
			c7.8287,0,15.1816,0.5141,22.963,1.0564l0.184,0.0141l-1.1365,24.6187c-1.7686,36.2254-29.8019,62.5183-66.6589,62.5183
			c-36.4093,0-44.0496-20.2423-44.0496-37.2253C1630.2161,426.1567,1645.6053,398.4299,1718.9141,398.4299z"/>
		<path fill="#043150" d="M281.257,612.5695c-69.9037,0-122.5602-1.377-169.0527-2.8673l-1.2449-0.0378v1.2449
			c0,14.4599-0.4103,35.0228-2.3769,50.8361l-0.1698,1.3774l4.9427-0.066c43.5824-0.5565,84.7689-1.0755,136.4068-1.0847
			c1.1461,31.8341,1.1461,68.5076,1.1461,92.8716v124.5078c0,32.523-1.014,109.0765-4.1596,138.1379l-0.1416,1.3392h66.8947
			l-0.0989-1.2919c-1.2358-16.7521-1.7735-62.7542-1.7735-82.5339V698.0413c0-9.5076,0-23.7317,0.5377-36.0693
			c49.2042,0.0092,87.698,0.4904,128.4364,1.0091l10.9323,0.1416l0.0378-1.1885c0.6931-20.8976,2.1128-36.0933,4.7538-50.8124
			l0.2641-1.467l-1.4904,0.0474C390.9514,611.7111,338.9601,612.5695,281.257,612.5695z"/>
		<path fill="#043150" d="M710.5314,922.5897V812.6078c0-21.1476,1.2496-46.8604,2.9712-61.141l0.1793-1.4903l-1.4903,0.1508
			c-18.9924,1.8109-41.4792,2.8582-61.6883,2.8582h-1.3629l0.1649,1.3488c2.6036,21.5059,4.155,57.8584,4.155,97.2484v66.4608
			c0,33.834-44.219,62.3859-71.9928,62.3859c-38.371,0-54.746-19.5156-54.746-65.2536V812.6266
			c0-9.7153,0.1699-42.8234,2.3773-61.1597l0.179-1.4903l-1.4903,0.1508c-19.2703,1.8392-40.748,2.8582-60.4807,2.8582h-1.33
			l0.1275,1.3205c2.1552,22.4112,3.5467,60.5937,3.5467,97.2767v73.9125c0,68.7999,32.8153,103.6903,97.5312,103.6903
			c26.9627,0,66.6069-17.3082,88.5704-49.4446l6.2114,39.1351h52.8779l-0.1553-1.3392
			C712.0077,993.8424,710.5314,960.1214,710.5314,922.5897z"/>
		<path fill="#043150" d="M565.4372,684.6096h45.1434c19.7469,0,39.2721,0.4622,59.943,0.953l8.3337,0.1981v-1.2358
			c0-13.5734,1.2686-31.7826,2.9475-42.3562l0.2313-1.4526l-1.4716,0.0565c-27.7169,1.0659-60.1552,1.6789-88.9899,1.6789
			c-38.3195,0-58.2405-0.5187-88.4007-1.6789l-1.2545-0.0473v1.2545c0,12.7669-1.2453,32.9146-2.3582,42.4035l-0.1652,1.3865
			l4.5561-0.1225C523.1326,685.1096,541.2475,684.6096,565.4372,684.6096z"/>
		<path fill="#043150" d="M1220.9103,900.0651l-142.8495-295.9327l-0.4335-0.8961l-17.0258,4.4286l-0.2218,0.5706
			c-13.9126,35.3434-30.7399,71.6204-51.7367,115.2264l-141.8965,295.3575h67.0031l0.3065-0.7453
			c14.4932-34.9095,30.9197-74.4877,46.4265-109.567l2.0796-4.9897h174.5942l55.609,119.1974l0.3538,0.7546l66.9653-4.7821
			l-0.8771-1.6415C1264.4457,989.5034,1244.8309,950.1512,1220.9103,900.0651z M1134.6133,855.2896h-129.5452l64.7632-140.4679
			L1134.6133,855.2896z"/>
		<path fill="#043150" d="M1513.8058,943.7467c-12.9696-14.6015-26.3822-29.7026-39.3942-43.9457l-24.7603-26.6937l117.3628-124.7627
			l2.1697-2.3109l-3.1505,0.2737c-23.7039,2.0655-56.3966,2.2918-69.3518,2.2918h-0.5896l-0.3633,0.4622
			c-11.1725,14.2809-36.8429,43.5874-61.6692,71.9222c-14.9503,17.0727-29.1271,33.2589-39.4602,45.3892V666.0656
			c0-20.8503,0.6224-48.3366,2.3628-62.9519l0.198-1.6415l-1.6273,0.316c-15.1908,2.9383-34.5508,5.3011-60.9287,7.4421
			l-1.2496,0.0992l0.1508,1.2495c2.627,21.888,4.1364,56.326,4.1364,94.4799v219.0682c0,21.9963-0.5377,63.3671-4.1364,93.3243
			l-0.1648,1.3488h63.7911l-0.1694-1.3583c-1.9526-15.7427-2.3628-38.8615-2.3628-55.472v-71.9786l121.9563,135.2985l0.4576,0.5095
			l58.8534-11.6022l2.212-0.4431l-1.5896-1.5941C1558.4119,993.9649,1536.7456,969.5726,1513.8058,943.7467z"/>
		<path fill="#043150" d="M1721.3616,744.8735c-41.0308,0-76.2799,14.9881-101.9359,43.3607
			c-24.4537,27.0334-37.9232,64.5556-37.9232,105.6432c0,62.4146,35.6876,135.308,136.2701,135.308
			c36.6169,0,69.3472-10.0549,103.0116-31.6552l0.5283-0.3397l2.5326-57.1604l-2.0751,1.6506
			c-22.7559,18.0349-54.5289,38.739-98.6349,38.739c-51.5624,0-79.9681-26.2125-84.4487-77.9305l161.2709-4.537l36.8383-21.1098
			v-0.698C1836.7955,792.7243,1794.7225,744.8735,1721.3616,744.8735z M1640.0588,860.5999
			c8.678-42.7665,38.574-69.2529,78.3224-69.2529c38.286,0,58.2875,20.1572,64.7064,65.3101L1640.0588,860.5999z"/>
	</g>
	<g>
		<polygon fill="#043150" points="320.5033,1591.87 566.8082,1591.87 566.8082,1426.6274 320.5033,1426.6274 320.5033,1356.9972
			572.0046,1356.9972 572.0046,1189.6761 106.4156,1189.6761 106.4156,1835.0571 581.3578,1835.0571 581.3578,1666.6968
			320.5033,1666.6968 		"/>
		<path fill="#043150" d="M1845.0992,1597.0664c-28.0602,28.0599-81.0625,59.2378-156.9286,59.2378
			s-149.6534-44.6882-149.6534-144.4573c0-100.8081,69.6304-147.575,149.6534-147.575c81.0625,0,147.5751,56.1201,147.5751,56.1201
			l57.1593-177.7137c0,0-71.7089-60.2771-218.2448-60.2771c-194.3417,0-351.2703,117.4364-351.2703,332.5635
			c-1.0391,214.0878,154.85,331.5244,350.2311,331.5244c142.3788,0,208.8915-58.1987,232.7946-81.0625L1845.0992,1597.0664z"/>
		<path fill="#043150" d="M948.2169,1180.3228c-204.7343,0-356.4665,123.6721-356.4665,333.6029
			c1.0394,209.9305,152.7715,332.5635,356.4665,332.5635c54.0416,0,104.9655-8.3142,150.6928-25.9816l63.3951,71.7089
			l119.515-102.8868l-51.9631-58.1985c46.7667-55.0809,74.8267-127.8292,74.8267-217.2056
			C1304.6833,1302.9554,1152.9512,1180.3228,948.2169,1180.3228z M1080.2031,1561.7317l-55.0809-62.3557l-119.515,102.8867
			l49.8845,56.1201c-2.0784,0-5.1962,0-7.2748,0c-85.2193,0-140.3002-61.3164-140.3002-150.6929
			c0-87.2979,55.0809-149.6536,140.3002-149.6536c85.2195,0,139.261,61.3163,139.261,150.6927
			C1087.4779,1527.4359,1084.36,1545.1033,1080.2031,1561.7317z"/>
	</g>
</g>
</svg>