<svg id="Layer_1" data-name="Layer 1" xmlns="http://www.w3.org/2000/svg" width="150" height="36" viewBox="0 0 710.584 171.5262"><polygon fill="#023352" points="378.025 108.374 429.781 108.374 429.781 73.535 378.025 73.535 378.025 58.774 430.811 58.774 430.811 23.739 333.207 23.739 333.207 159.548 432.804 159.548 432.804 124.12 378.025 124.12 378.025 108.374"/><path fill="#023352" d="M749.0527,273.2009c-5.9767,5.9074-16.9336,12.4019-32.8678,12.4019s-31.4726-9.4482-31.4726-30.5093c0-21.2548,14.5419-31.0961,31.4726-31.0961s30.8747,11.81,30.8747,11.81L759.013,198.41s-14.94-12.795-45.8151-12.795c-40.8349,0-73.7027,24.801-73.7027,70.0707s32.8678,70.068,73.7027,70.068c29.8781,0,43.8219-12.2026,48.8021-17.1218Z" transform="translate(-51.416 -163.8447)"/><path fill="#023352" d="M561.1933,185.4186c-42.8281,0-74.6966,25.98-74.6966,70.2673,0,44.2843,31.8685,70.068,74.6966,70.068a90.1357,90.1357,0,0,0,31.5085-5.376l13.1909,14.993,25.1748-21.62-10.7963-12.2719c9.8717-11.5714,15.6186-27.01,15.6186-45.7929C635.89,211.399,604.0214,185.4186,561.1933,185.4186Zm27.7326,80.4325L577.4542,252.81l-25.1748,21.623L562.738,286.317c-.5177.0249-1.0188.0719-1.5447.0719-17.9274,0-29.4794-12.9915-29.4794-31.6885s11.552-31.6885,29.4794-31.6885,29.2828,12.9915,29.2828,31.6885A39.6686,39.6686,0,0,1,588.9259,265.8511Z" transform="translate(-51.416 -163.8447)"/><path fill="#023352" d="M177.1476,235.76l-.0245.2316H188.687l-.0171-.2242c-.2137-2.8942-.3066-10.8481-.3066-14.2665V180.5391c0-1.6444,0-4.1041.0929-6.2361,8.4577.0017,15.0769.0848,22.0818.1737l2.01.0253.0065-.2046a59.3073,59.3073,0,0,1,.8218-8.7839l.0457-.2535-.2577.0082c-11.1015.3465-20.0891.4949-30.0517.4949-12.0694,0-21.1784-.2381-29.2235-.4949l-.2153-.0065v.2152a78.52,78.52,0,0,1-.4109,8.7878l-.0294.2381.998-.0131c7.49-.0954,14.5673-.185,23.4366-.1867.1981,5.5032.1981,11.8419.1981,16.0544v21.5241C177.8666,217.5036,177.6913,230.7371,177.1476,235.76Z" transform="translate(-51.416 -163.8447)"/><path fill="#023352" d="M200.4848,214.3966a23.8348,23.8348,0,0,0,6.2263,16.3756,22.3525,22.3525,0,0,0,16.8231,7.0089c14.1923,0,24.4925-10.835,24.4925-25.7627,0-11.6209-7.953-23.3845-23.1521-23.3845C210.7418,188.6339,200.4848,199.4689,200.4848,214.3966Zm9.7686-1.4863c0-9.1824,5.976-15.8473,14.2086-15.8473,8.3786,0,13.7928,6.3755,13.7928,16.2428,0,9.4482-5.8414,16.047-14.2053,16.047C215.282,229.3528,210.2534,223.36,210.2534,212.91Z" transform="translate(-51.416 -163.8447)"/><path fill="#023352" d="M258.1084,235.7519l-.0286.2339H269.108l-.0293-.2347a89.3893,89.3893,0,0,1-.4085-9.5876V213.72l21.0822,23.3878.0791.088,10.5562-2.0805-.2748-.2764c-3.1257-3.1453-6.8727-7.3636-10.84-11.83-2.2412-2.5225-4.5575-5.1314-6.8059-7.5919l-4.28-4.6161,20.288-21.5672.3751-.3979-.5446.0473c-4.087.3571-9.7458.3954-11.9887.3954h-.1018l-.0628.08c-1.9314,2.4678-6.3689,7.5339-10.6606,12.4337-2.5844,2.9505-5.0351,5.7486-6.8214,7.8446V175.0107c0-3.6043.1077-8.3557.4085-10.8823l.0343-.2837-.2813.0547a98.8851,98.8851,0,0,1-10.5334,1.2865l-.216.017.0261.2161a151.7827,151.7827,0,0,1,.7158,16.3324v37.87A154.2182,154.2182,0,0,1,258.1084,235.7519Z" transform="translate(-51.416 -163.8447)"/><path fill="#023352" d="M320.04,237.3849a17.4321,17.4321,0,0,0,14.6846-7.5152c.6767,4.4661,3.82,7.3163,8.1455,7.3163a16.2348,16.2348,0,0,0,6.2466-1.3991l.1125-.044.9906-6.7823-.3188.102a13.2824,13.2824,0,0,1-4.0495.7851,2.7161,2.7161,0,0,1-2.05-.6686c-.5495-.5706-.7794-1.55-.7223-3.0825l.6172-19.6147c.16-5.4558-1.3322-9.9626-4.3145-13.033-3.1029-3.1958-7.6717-4.8158-13.5784-4.8158a34.2634,34.2634,0,0,0-16.8664,4.4775l-.1427.08,2.2787,8.3753.2447-.1777a23.6214,23.6214,0,0,1,12.9416-4.3258c3.5106,0,5.9915.7981,7.5837,2.4392,1.5784,1.6265,2.295,4.1,2.1906,7.5528l-.0889,1.28c-1.253-.0929-2.5436-.1842-3.817-.1842-15.78,0-25.201,5.8161-25.201,15.5587C304.9263,232.0163,310.8591,237.3849,320.04,237.3849ZM329.8174,214.4c1.3534,0,2.6244.0889,3.97.1827l.0318.0024-.1965,4.2557a11.1778,11.1778,0,0,1-11.5231,10.8073c-6.2939,0-7.6146-3.4992-7.6146-6.4349C314.4846,219.1929,317.1448,214.4,329.8174,214.4Z" transform="translate(-51.416 -163.8447)"/><path fill="#023352" d="M81.295,251.4174c-12.084,0-21.1865-.2381-29.2235-.4957l-.2152-.0065v.2152a78.5353,78.5353,0,0,1-.4109,8.7878l-.0294.2381.8544-.0114c7.534-.0962,14.6537-.1859,23.58-.1875.1981,5.503.1981,11.8426.1981,16.0544V297.535c0,5.6221-.1753,18.8556-.719,23.8794l-.0245.2315H86.869l-.0171-.2234c-.2136-2.8958-.3066-10.848-.3066-14.2673V266.1926c0-1.6436,0-4.1025.093-6.2352,8.5057.0016,15.16.0848,22.2023.1744l1.89.0245.0065-.2054a59.2869,59.2869,0,0,1,.8218-8.7838l.0456-.2536-.2576.0082C100.2574,251.269,91.27,251.4174,81.295,251.4174Z" transform="translate(-51.416 -163.8447)"/><path fill="#023352" d="M155.5021,305.0094V285.9973a104.5235,104.5235,0,0,1,.5136-10.5693l.031-.2576-.2576.0261c-3.2832.313-7.17.4941-10.6639.4941H144.89l.0286.2331a159.3591,159.3591,0,0,1,.7182,16.811v11.4888c0,5.8488-7.644,10.7844-12.4451,10.7844-6.6331,0-9.4638-3.3736-9.4638-11.28V286.0005c0-1.6795.0294-7.4027.411-10.5725l.0309-.2576-.2576.0261c-3.3312.3179-7.0439.4941-10.4551.4941h-.23l.022.2282c.3726,3.8742.6131,10.4746.6131,16.8159v12.777c0,11.8931,5.6727,17.9245,16.86,17.9245,4.661,0,11.5141-2.992,15.3109-8.5473l1.0737,6.7652h9.1408l-.0269-.2316A156.8908,156.8908,0,0,1,155.5021,305.0094Z" transform="translate(-51.416 -163.8447)"/><path fill="#023352" d="M130.42,263.8707h7.8037c3.4136,0,6.7889.08,10.3622.1647l1.4406.0342v-.2136a55.0851,55.0851,0,0,1,.51-7.3219l.04-.2511-.2544.01c-4.7913.1843-10.3988.29-15.3834.29-6.6241,0-10.0678-.09-15.2815-.29l-.2168-.0082v.2169c0,2.207-.2153,5.69-.4077,7.33l-.0286.24.7876-.0212C123.1071,263.9571,126.2386,263.8707,130.42,263.8707Z" transform="translate(-51.416 -163.8447)"/><path fill="#023352" d="M243.7294,301.1157l-24.6939-51.1568-.0749-.1549-2.9432.7655-.0383.0987c-2.4051,6.11-5.3139,12.3807-8.9436,19.9187l-24.5291,51.0574H194.089l.053-.1289c2.5053-6.0346,5.3449-12.8764,8.0255-18.94l.3595-.8625h30.1815l9.6129,20.6052.0612.13,11.576-.8266-.1516-.2838C251.2552,316.5765,247.8644,309.7739,243.7294,301.1157Zm-14.9179-7.74h-22.394l11.1954-24.2822Z" transform="translate(-51.416 -163.8447)"/><path fill="#023352" d="M294.3611,308.6667c-2.242-2.5241-4.5606-5.1345-6.81-7.5967l-4.28-4.6144,20.2881-21.5673.375-.3995-.5446.0473c-4.0976.3571-9.7491.3962-11.9886.3962h-.1019l-.0628.08c-1.9313,2.4687-6.3689,7.5348-10.6605,12.4329-2.5844,2.9513-5.0351,5.7494-6.8214,7.8463V260.665c0-3.6043.1076-8.3557.4085-10.8822l.0342-.2838-.2813.0546a99.3043,99.3043,0,0,1-10.5325,1.2865l-.216.0172.026.216a152.0687,152.0687,0,0,1,.7151,16.3324v37.8695a154.518,154.518,0,0,1-.7151,16.1326l-.0285.2332h11.0274l-.0293-.2348a89.4272,89.4272,0,0,1-.4085-9.5892V299.3743l21.0822,23.3885.0791.0881,10.1738-2.0056.3823-.0766-.2747-.2756C302.072,317.3478,298.3267,313.1312,294.3611,308.6667Z" transform="translate(-51.416 -163.8447)"/><path fill="#023352" d="M330.2405,274.2883a23.0417,23.0417,0,0,0-17.6212,7.4956,27.02,27.02,0,0,0-6.5557,18.2621c0,10.7894,6.1692,23.39,23.5565,23.39a31.7833,31.7833,0,0,0,17.8073-5.4721l.0913-.0587.4378-9.8811-.3587.2853c-3.9337,3.1176-9.4262,6.6967-17.0507,6.6967-8.9134,0-13.8238-4.5313-14.5983-13.4716l27.8783-.7843,6.3681-3.6491v-.1207C350.1952,282.56,342.9222,274.2883,330.2405,274.2883ZM316.186,294.2935c1.5-7.3929,6.6682-11.9715,13.5393-11.9715,6.6184,0,10.076,3.4845,11.1856,11.29Z" transform="translate(-51.416 -163.8447)"/></svg>