<?xml version="1.0" encoding="UTF-8"?><svg id="Layer_1" xmlns="http://www.w3.org/2000/svg" width="90" height="47" viewBox="0 0 386 196"><rect fill="#102a4c" width="111.6" height="195.39999"/><polygon fill="#f05b3e" points="0 99.9 0 123.1 55.8 67.3 111.6 123.1 111.6 99.9 55.8 44.1 0 99.9"/><polygon fill="#00a3c8" points="55.8 0 0 55.8 0 79.1 55.8 23.2 111.6 79 111.6 55.8 55.8 0"/><polygon fill="#00acaa" points="0 144 0 167.2 55.8 111.4 111.6 167.2 111.6 143.89999 55.8 88.1 0 144"/><polygon fill="#03b06a" points="65.2 165.5 95.1 195.39999 111.6 195.39999 111.6 188.7 76.8 153.89999 65.2 165.5"/><rect fill="#03b06a" x="47.51278" y="136.27038" width="16.5" height="16.3" transform="translate(-85.7881 81.72999) rotate(-45)"/><polygon fill="#03b06a" points="35.2 195.39999 76.2 195.39999 55.7 174.89999 35.2 195.39999"/><polygon fill="#03b06a" points="0 188.7 0 195.39999 16.4 195.39999 46.3 165.5 34.7 154 0 188.7"/><path fill="#102a4c" d="M158.86888,63.82639v29.08394c-1.08253.14433-2.16506.28868-3.31976.28868s-2.23723-.07217-3.46408-.28868v-11.61914h-11.40263v11.61914c-1.08253.14433-2.23723.28868-3.31976.28868s-2.23723-.07217-3.39193-.28868v-29.08394c1.01036-.14434,2.16506-.28867,3.24759-.28867s2.23723.07217,3.46408.28867v11.2583h11.40263v-11.2583c1.08253-.14434,2.23723-.28867,3.31976-.28867s2.3094.07217,3.46411.28867"/><path fill="#102a4c" d="M173.51909,88.94106c1.08253,0,2.16506-.14434,3.24759-.50518v-3.96927c-1.08253-.28868-2.3094-.50518-3.6806-.50518-2.16506,0-3.46408.72169-3.46408,2.3094s1.3712,2.67024,3.8971,2.67024M183.55052,80.20866v11.33047c-3.24759,1.29903-6.92819,2.09289-10.89746,2.09289-6.13433,0-9.74276-2.38156-9.74276-7.07252s3.8971-6.85602,9.38192-6.78384c1.73204.07217,3.24759.21651,4.54661.64952v-.86602c0-1.87638-1.29903-3.17542-4.47446-3.17542-2.5259,0-4.69096,1.01036-5.84566,1.87638-1.44337-.79385-2.59807-2.3094-2.88674-4.33011,1.22687-1.08253,4.61878-3.10325,9.38192-3.10325,6.20652-.07217,10.53664,2.67024,10.53664,9.38192"/><path fill="#102a4c" d="M206.06713,90.09575c0,1.22687-.2165,2.16506-.43302,2.74241h-18.69166c-.14435-.50518-.28867-1.1547-.28867-1.58771,0-1.80421.64951-2.81458,1.29903-3.60843l8.22721-9.38192,1.22687-1.3712h-10.17577c-.14435-.57735-.36084-1.80421-.36084-2.81458,0-1.1547.14435-2.02072.36084-2.59807h17.96997c.14435.43301.2165,1.01036.2165,1.51554,0,1.65988-.50519,3.03108-1.29903,3.96927l-7.5777,9.23758-1.08253,1.1547h10.17577c.21652.72169.43302,1.65989.43302,2.74241"/><path fill="#102a4c" d="M218.91313,88.94106c1.08253,0,2.16506-.14434,3.24759-.50518v-3.96927c-1.08253-.28868-2.3094-.50518-3.6806-.50518-2.16506,0-3.46408.72169-3.46408,2.3094s1.29905,2.67024,3.8971,2.67024M228.8724,80.20866v11.33047c-3.24759,1.29903-6.92819,2.09289-10.89746,2.09289-6.13433,0-9.74276-2.38156-9.74276-7.07252s3.8971-6.85602,9.38192-6.78384c1.73204.07217,3.24759.21651,4.54661.64952v-.86602c0-1.87638-1.29903-3.17542-4.47446-3.17542-2.5259,0-4.69096,1.01036-5.84566,1.87638-1.44337-.79385-2.59807-2.3094-2.88674-4.33011,1.22687-1.08253,4.61878-3.10325,9.38192-3.10325,6.20652-.07217,10.53664,2.67024,10.53664,9.38192"/><path fill="#102a4c" d="M247.63621,71.33192c-.07215,2.23722-.64953,4.33011-1.87637,5.84566-.79384-.21651-1.65987-.28868-2.59805-.28868-1.44337,0-2.59807.28868-3.31976.64952v15.44408c-1.08253.14433-2.23723.28868-3.39193.28868s-2.23723-.07217-3.31976-.28868v-18.98034c1.51554-1.3712,4.8353-3.31975,9.59841-3.31975,1.94856,0,3.60843.21651,4.90745.64952"/><path fill="#102a4c" d="M263.72984,87.49769v-10.32011c-1.01038-.50518-2.02071-.64952-3.10324-.64952-3.24759,0-5.62914,2.16506-5.62914,5.62915s2.23721,5.70132,5.55699,5.70132c1.08248.07217,2.16501-.07217,3.17539-.36084M270.51366,63.10471v28.43442c-2.23721,1.1547-5.98998,2.16506-9.74276,2.16506-7.86639,0-12.55735-4.11361-12.55735-11.40264s5.34049-11.54697,12.05216-11.54697c1.44337,0,2.5259.14434,3.46408.43301v-8.08288c1.15468-.14434,2.23721-.28867,3.39193-.28867s2.23725.14434,3.39193.28867"/><path fill="#102a4c" d="M273.97775,90.96178c.36084-2.16506,1.37122-3.75277,2.67025-4.54662,1.58772,1.01036,3.82493,2.16506,7.07251,2.16506,2.09291,0,2.81459-.79385,2.81459-1.73205,0-1.1547-1.15468-1.73205-4.69096-2.38156-3.53628-.72169-7.28901-2.02072-7.28901-6.78385,0-4.47445,4.11362-7.00035,9.45407-7.00035,4.47446,0,7.21686,1.01036,8.73238,2.02072-.28869,2.16506-1.15468,3.75277-2.38155,4.69096-1.44337-.79385-3.82493-1.58771-6.27868-1.58771-2.16506,0-3.10324.43301-3.10324,1.51554s.93818,1.51554,4.33011,2.16506c4.25796.72169,7.86639,2.16506,7.86639,6.78384s-3.46408,7.28903-9.74276,7.28903c-4.76315.14435-8.01074-1.44336-9.45411-2.59806"/><path fill="#102a4c" d="M159.22973,23.14031v28.9396c-2.16506.43301-4.47445.50518-6.49517.36084l-11.2583-16.59877-.93819-1.73205.14433,2.09289v15.94926c-1.1547.14433-2.30939.28868-3.39192.28868s-2.02072-.07217-3.31976-.28868v-28.86743c1.51554-.50518,4.25794-.72169,6.49517-.43301l11.18613,16.88745,1.01036,1.80421-.14433-2.3094v-16.09359c1.22686-.14434,2.09288-.28867,3.24759-.28867s2.23724.07217,3.46411.28867"/><path fill="#102a4c" d="M173.87996,48.25498c1.08253,0,2.16506-.14434,3.24759-.50518v-3.96927c-1.08253-.28868-2.30939-.50518-3.6806-.50518-2.09288,0-3.46409.72169-3.46409,2.3094s1.29904,2.67024,3.89711,2.67024M183.83922,39.52258v11.33047c-3.24759,1.29903-6.92819,2.09289-10.89746,2.09289-6.2065,0-9.74276-2.38156-9.74276-7.07252s3.8971-6.85602,9.38192-6.78384c1.73204.07217,3.24759.21651,4.54662.64952v-.86602c0-1.87638-1.29904-3.17542-4.47445-3.17542-2.5259,0-4.69096,1.01036-5.84566,1.87638-1.44337-.79385-2.59807-2.3094-2.88674-4.33011,1.22686-1.08253,4.61878-3.10325,9.30974-3.10325,6.27868-.07217,10.60879,2.67024,10.60879,9.38192"/><path fill="#102a4c" d="M205.56196,50.4922c-1.51554,1.22687-3.6806,2.38156-7.00035,2.38156-4.97963,0-8.66023-2.09289-8.66023-7.3612v-8.9489h-3.6806c-.14433-.86602-.21651-1.80421-.21651-2.81458,0-.93819.07217-1.80421.21651-2.74241h3.6806v-5.70132c1.1547-.14434,2.30939-.28867,3.46409-.28867s2.23723.07217,3.24759.28867v5.70132h7.50553c.14433.86602.28867,1.80421.28867,2.67024,0,1.01036-.14433,1.87638-.28867,2.88674h-7.50553v7.28903c0,2.45373,1.1547,3.24759,3.10325,3.24759,1.29904,0,2.23723-.64952,2.95892-1.29903,1.3712.86602,2.67022,2.88674,2.88673,4.69096"/><path fill="#102a4c" d="M228.94459,30.86235v19.62985c-1.65987.93819-5.55699,2.5259-10.68095,2.5259-7.36119,0-10.32011-3.46409-10.32011-8.7324v-13.42336c1.1547-.14434,2.23723-.28868,3.39192-.28868s2.23723.07217,3.31976.28868v11.83565c0,2.95891.86602,4.33011,4.11361,4.33011,1.29904,0,2.45373-.21651,3.39193-.64952v-15.51624c1.1547-.14434,2.23723-.28868,3.31976-.28868s2.38155.14434,3.46408.28868"/><path fill="#102a4c" d="M248.14144,30.64584c-.07217,2.23722-.64951,4.33011-1.87639,5.84566-.79386-.21651-1.65987-.28868-2.59807-.28868-1.44337,0-2.59807.28868-3.31976.64952v15.44408c-1.08253.14433-2.23723.28868-3.39193.28868s-2.23723-.07217-3.31976-.28868v-18.98034c1.51554-1.3712,4.8353-3.31975,9.59841-3.31975,1.94858,0,3.68062.21651,4.9075.64952"/><path fill="#102a4c" d="M259.61624,48.25498c1.08253,0,2.16506-.14434,3.24759-.50518v-3.96927c-1.08253-.28868-2.3094-.50518-3.6806-.50518-2.16506,0-3.46408.72169-3.46408,2.3094s1.29903,2.67024,3.8971,2.67024M269.57549,39.52258v11.33047c-3.24759,1.29903-6.92819,2.09289-10.89746,2.09289-6.13433,0-9.74276-2.38156-9.74276-7.07252s3.8971-6.85602,9.38192-6.78384c1.73204.07217,3.24759.21651,4.54661.64952v-.86602c0-1.87638-1.29903-3.17542-4.47446-3.17542-2.5259,0-4.69096,1.01036-5.84566,1.87638-1.44337-.79385-2.59807-2.3094-2.88674-4.33011,1.22687-1.08253,4.61878-3.10325,9.38192-3.10325,6.2787-.07217,10.53664,2.67024,10.53664,9.38192"/><path fill="#102a4c" d="M273.90561,52.22425v-29.73345c1.01036-.14434,2.16506-.28867,3.31976-.28867s2.3094.07217,3.46408.28867v29.73345c-1.08253.14433-2.23723.28868-3.31976.28868s-2.30938-.14433-3.46408-.28868"/><path fill="#102a4c" d="M133.97072,119.98575c0-9.09324,6.27866-15.51624,15.29974-15.51624,4.11361,0,7.00035,1.22686,8.9489,2.81458-.28867,2.02072-1.73204,4.25795-3.6806,5.26831-1.65988-1.1547-3.24759-1.65988-5.12397-1.65988-4.90747,0-8.08288,3.39192-8.08288,9.09324s3.24759,9.02107,7.93854,9.02107c2.88674,0,4.47445-.86602,5.84566-2.02072,2.09288,1.22686,3.24759,2.81458,3.6806,5.41264-1.73204,1.3712-4.61878,2.95891-9.81493,2.95891-9.23757,0-15.01106-6.27866-15.01106-15.3719"/><path fill="#102a4c" d="M176.83885,123.81069c0-3.53626-1.80421-5.84565-4.97963-5.84565s-5.0518,2.30939-5.0518,5.84565,1.87639,5.84565,5.0518,5.84565,4.97963-2.38157,4.97963-5.84565M160.02358,123.81069c0-6.92818,4.97963-11.54697,11.83564-11.54697s11.76348,4.47445,11.76348,11.54697-4.97963,11.47481-11.83564,11.47481-11.76348-4.33011-11.76348-11.47481"/><path fill="#102a4c" d="M222.23289,120.99612v13.56769c-1.1547.14433-2.23723.28868-3.39192.28868s-2.23723-.07217-3.39192-.28868v-12.05215c0-2.67024-1.29904-4.11361-3.82494-4.11361-1.73204,0-2.81457.64952-3.60843,1.22686.07217.43301.07217.93819.07217,1.3712v13.56769c-1.1547.14433-2.23723.28868-3.39192.28868s-2.23723-.07217-3.31976-.28868v-12.05215c0-2.67024-1.29904-4.11361-3.82494-4.11361-1.51554,0-2.67024.43301-3.46409.93819v15.22757c-1.1547.14433-2.23723.28868-3.39192.28868s-2.23723-.07217-3.31976-.28868v-18.69166c1.51554-1.29904,5.55698-3.60843,10.89746-3.60843,3.03108,0,5.41264.79385,7.00035,2.02072,1.73204-1.08253,4.18578-2.02072,7.14469-2.02072,6.56736,0,9.81493,3.6806,9.81493,8.7324"/><path fill="#102a4c" d="M261.70911,120.99612v13.56769c-1.1547.14433-2.23723.28868-3.39193.28868s-2.23723-.07217-3.39193-.28868v-12.05215c0-2.67024-1.29903-4.11361-3.82493-4.11361-1.73204,0-2.81457.64952-3.60843,1.22686.07217.43301.07217.93819.07217,1.3712v13.56769c-1.1547.14433-2.23723.28868-3.39193.28868s-2.23723-.07217-3.31976-.28868v-12.05215c0-2.67024-1.29903-4.11361-3.82493-4.11361-1.51554,0-2.67025.43301-3.46408.93819v15.22757c-1.1547.14433-2.23723.28868-3.39193.28868s-2.23723-.07217-3.31976-.28868v-18.69166c1.51554-1.29904,5.55699-3.60843,10.89746-3.60843,3.03109,0,5.41264.79385,7.00036,2.02072,1.73204-1.08253,4.18577-2.02072,7.14469-2.02072,6.63952,0,9.81493,3.6806,9.81493,8.7324"/><path fill="#102a4c" d="M266.32789,134.56381v-21.50623c1.08253-.14433,2.23723-.28868,3.31976-.28868s2.23723.07217,3.39193.28868v21.50624c-1.08253.14433-2.23723.28868-3.39193.28868-1.08253,0-2.16506-.07217-3.31976-.28866M265.67838,106.20156c0-2.23722,1.80421-4.04144,4.11362-4.04144s4.11362,1.80421,4.11362,4.04144-1.87639,4.11361-4.11362,4.11361-4.11362-1.94855-4.11362-4.11361"/><path fill="#102a4c" d="M276.64801,132.61526c.36084-2.09289,1.3712-3.75276,2.67025-4.54662,1.58772,1.01036,3.82493,2.16506,7.07251,2.16506,2.09288,0,2.81457-.79385,2.81457-1.73205,0-1.1547-1.1547-1.73205-4.69096-2.38157-3.53626-.72169-7.28903-2.02072-7.28903-6.78385,0-4.47445,4.11362-7.00035,9.45409-7.00035,4.47446,0,7.21686,1.01036,8.7324,2.02072-.28867,2.16506-1.1547,3.75276-2.38155,4.69096-1.44337-.79385-3.82493-1.58771-6.27868-1.58771-2.16506,0-3.10324.43301-3.10324,1.51554s.93818,1.51554,4.33011,2.09289c4.25794.72169,7.86637,2.09289,7.86637,6.78385s-3.46408,7.28903-9.74276,7.28903c-4.8353.21651-8.08289-1.37119-9.45409-2.5259"/><path fill="#102a4c" d="M298.37074,132.61526c.36084-2.09289,1.3712-3.75276,2.67025-4.54662,1.58772,1.01036,3.82493,2.16506,7.07251,2.16506,2.09288,0,2.81457-.79385,2.81457-1.73205,0-1.1547-1.1547-1.73205-4.69096-2.38157-3.53626-.72169-7.28903-2.02072-7.28903-6.78385,0-4.47445,4.11362-7.00035,9.45409-7.00035,4.47446,0,7.21686,1.01036,8.7324,2.02072-.28867,2.16506-1.1547,3.75276-2.38155,4.69096-1.44337-.79385-3.82493-1.58771-6.27868-1.58771-2.16506,0-3.10324.43301-3.10324,1.51554s.93818,1.51554,4.33011,2.09289c4.25794.72169,7.86637,2.09289,7.86637,6.78385s-3.46408,7.28903-9.74276,7.28903c-4.76313.21651-8.01072-1.37119-9.45409-2.5259"/><path fill="#102a4c" d="M321.46469,134.56381v-21.50623c1.08253-.14433,2.23723-.28868,3.31976-.28868s2.23723.07217,3.39193.28868v21.50624c-1.08253.14433-2.23723.28868-3.39193.28868-1.01036,0-2.16506-.07217-3.31976-.28866M320.81517,106.20156c0-2.23722,1.80421-4.04144,4.11362-4.04144s4.11362,1.80421,4.11362,4.04144-1.87639,4.11361-4.11362,4.11361-4.11362-1.94855-4.11362-4.11361"/><path fill="#102a4c" d="M348.74442,123.81069c0-3.53626-1.80421-5.84565-4.97963-5.84565s-5.0518,2.30939-5.0518,5.84565,1.87639,5.84565,5.0518,5.84565,4.97963-2.38157,4.97963-5.84565M331.92913,123.81069c0-6.92818,4.97963-11.54697,11.83564-11.54697s11.76347,4.47445,11.76347,11.54697-4.97963,11.47481-11.83564,11.47481-11.76347-4.33011-11.76347-11.47481"/><path fill="#102a4c" d="M380.42642,121.5013v13.06251c-1.1547.14433-2.23723.28868-3.39193.28868s-2.23723-.07217-3.39193-.28868v-11.97998c0-3.10325-1.65987-4.18578-4.11362-4.18578-1.58772,0-2.88674.43301-3.60843.93819v15.22757c-1.1547.14433-2.23723.28868-3.39193.28868s-2.23723-.07217-3.31976-.28868v-18.69166c1.65987-1.51554,5.55699-3.60843,10.89746-3.60843,7.07256.07217,10.32014,3.96927,10.32014,9.23758"/><polygon fill="#102a4c" points="140.97107 152.12464 133.97072 152.12464 133.97072 149.67091 150.93034 149.67091 150.93034 152.12464 143.92999 152.12464 143.92999 172.69269 140.97107 172.69269 140.97107 152.12464"/><path fill="#102a4c" d="M163.12682,164.24896c0-3.96927-1.94855-6.56735-4.90747-6.56735s-4.90747,2.59807-4.90747,6.56735,1.94855,6.49517,4.90747,6.49517,4.90747-2.59806,4.90747-6.49517M150.28082,164.24896c0-5.70131,3.75276-9.02107,7.93854-9.02107s7.93854,3.24759,7.93854,9.02107-3.75276,8.9489-7.93854,8.9489-7.93854-3.31975-7.93854-8.9489"/><polygon fill="#102a4c" points="169.11682 147.72236 172.00356 147.72236 172.00356 164.53765 172.14789 164.53765 179.36475 155.66091 182.61234 155.66091 176.91103 162.51692 183.33403 172.69269 180.15861 172.69269 175.17898 164.53765 172.00356 168.21824 172.00356 172.69269 169.11682 172.69269 169.11682 147.72236"/><path fill="#102a4c" d="M194.73666,168.57908v-4.61878c-5.77349.64951-7.64987,1.94855-7.64987,4.18578,0,1.87639,1.29904,2.59807,2.95892,2.59807s3.03108-.7217,4.69096-2.16507M184.27222,168.29041c0-3.82494,3.17541-5.62915,10.46444-6.423-.07217-2.16506-.72169-4.25794-3.53626-4.25794-1.94855,0-3.75276.86602-5.12397,1.73204l-1.1547-1.94855c1.58771-1.08253,3.96927-2.23723,6.71168-2.23723,4.18578,0,5.91782,2.81457,5.91782,7.00035v10.53662h-2.38157l-.28867-2.02072h-.07217c-1.58771,1.3712-3.46409,2.45373-5.62915,2.45373-2.81456,0-4.90745-1.73204-4.90745-4.83529"/><polygon fill="#102a4c" points="211.62412 152.12464 204.62376 152.12464 204.62376 149.67091 221.58337 149.67091 221.58337 152.12464 214.58302 152.12464 214.58302 172.69269 211.62412 172.69269 211.62412 152.12464"/><path fill="#102a4c" d="M225.76916,149.59874h9.38192v2.02072h-9.38192v-2.02072ZM223.53193,166.4862v-10.82529h2.88674v10.46444c0,3.17541,1.01036,4.54662,3.24759,4.54662,1.73204,0,2.95892-.86602,4.54661-2.88674v-12.12432h2.88674v17.10395h-2.38155l-.2165-2.67024h-.07217c-1.58772,1.87639-3.24759,3.10325-5.62914,3.10325-3.68062-.07217-5.26832-2.38157-5.26832-6.71168"/><path fill="#102a4c" d="M252.32719,163.31077h6.85602l-1.08253-3.46409c-.86603-2.59807-1.58772-5.12397-2.3094-7.79421h-.14435c-.72169,2.67024-1.44337,5.19614-2.23723,7.79421l-1.08251,3.46409h0ZM254.13141,149.67091h3.39193l7.7942,23.09395h-3.10324l-2.16506-7.00035h-8.44373l-2.23723,7.00035h-2.95892l7.72205-23.09395h0Z"/><polygon fill="#102a4c" points="268.27645 147.72236 271.1632 147.72236 271.1632 164.53765 271.30752 164.53765 278.52438 155.66091 281.77197 155.66091 276.07065 162.51692 282.49365 172.69269 279.31824 172.69269 274.33861 164.53765 271.1632 168.21824 271.1632 172.69269 268.27645 172.69269 268.27645 147.72236"/><path fill="#102a4c" d="M294.83448,162.73343c0-3.39192-1.58772-5.19614-4.18577-5.19614-2.38155,0-4.47446,1.87639-4.8353,5.19614h9.02107ZM282.92667,164.1768c0-5.55698,3.75278-8.9489,7.64987-8.9489,4.33011,0,6.85602,3.10325,6.85602,8.01072,0,.64951,0,1.1547-.14435,1.73204h-11.4748c.2165,3.53626,2.38155,5.84566,5.62914,5.84566,1.65987,0,3.10324-.43302,4.25794-1.29904l1.01036,1.87639c-1.44337,1.08253-3.31976,1.73204-5.70131,1.73204-4.47444.07216-8.08287-3.2476-8.08287-8.94891"/></svg>