<?xml version="1.0" encoding="UTF-8"?><svg id="Layer_2" xmlns="http://www.w3.org/2000/svg" width="160" height="53" viewBox="0 0 583 196"><rect fill="#102a4c" width="111.6" height="195.39999"/><polygon fill="#f05b3e" points="0 99.9 0 123.1 55.8 67.3 111.6 123.1 111.6 99.9 55.8 44.1 0 99.9"/><polygon fill="#00a3c8" points="55.8 0 0 55.8 0 79.1 55.8 23.2 111.6 79 111.6 55.8 55.8 0"/><polygon fill="#00acaa" points="0 144 0 167.2 55.8 111.4 111.6 167.2 111.6 143.89999 55.8 88.1 0 144"/><polygon fill="#03b06a" points="65.2 165.5 95.1 195.39999 111.6 195.39999 111.6 188.7 76.8 153.89999 65.2 165.5"/><rect fill="#03b06a" x="47.4811" y="136.31885" width="16.49984" height="16.29985" transform="translate(-85.83161 81.72171) rotate(-45)"/><polygon fill="#03b06a" points="35.2 195.39999 76.2 195.39999 55.7 174.89999 35.2 195.39999"/><polygon fill="#03b06a" points="0 188.7 0 195.39999 16.4 195.39999 46.3 165.5 34.7 154 0 188.7"/><path fill="#102a4c" d="M396.60001,24.4v40.3c-1.5.2-3,.4-4.60001.4s-3.10001-.1-4.79999-.4v-16.1h-15.79999v16.1c-1.5.2-3.10001.4-4.60001.4s-3.10001-.1-4.70001-.4V24.4c1.39999-.2,3-.4,4.5-.4s3.10001.1,4.79999.4v15.6h15.79999v-15.6c1.5-.2,3.10001-.4,4.60001-.4s3.20001.1,4.80002.4"/><path fill="#102a4c" d="M416.89999,59.2c1.5,0,3-.2,4.5-.7v-5.5c-1.5-.4-3.20001-.7-5.10001-.7-3,0-4.79999,1-4.79999,3.2s1.89999,3.7,5.39999,3.7M430.79999,47.1v15.7c-4.5,1.8-9.60001,2.9-15.10001,2.9-8.5,0-13.5-3.3-13.5-9.8s5.39999-9.5,13-9.4c2.39999.1,4.5.3,6.29999.9v-1.2c0-2.6-1.79999-4.4-6.20001-4.4-3.5,0-6.5,1.4-8.10001,2.6-2-1.1-3.60001-3.2-4-6,1.70001-1.5,6.39999-4.3,13-4.3,8.60004-.1,14.60004,3.7,14.60004,13"/><path fill="#102a4c" d="M462,60.8c0,1.7-.29999,3-.60001,3.8h-25.89999c-.20001-.7-.39999-1.6-.39999-2.2,0-2.5.89999-3.9,1.79999-5l11.39999-13,1.70001-1.9h-14.10001c-.20001-.8-.5-2.5-.5-3.9,0-1.6.20001-2.8.5-3.6h24.89999c.20001.6.29999,1.4.29999,2.1,0,2.3-.70001,4.2-1.79999,5.5l-10.5,12.8-1.5,1.6h14.10001c.30002,1.00001.60001,2.30001.60001,3.80001"/><path fill="#102a4c" d="M479.79999,59.2c1.5,0,3-.2,4.5-.7v-5.5c-1.5-.4-3.20001-.7-5.10001-.7-3,0-4.79999,1-4.79999,3.2s1.80002,3.7,5.39999,3.7M493.60001,47.1v15.7c-4.5,1.8-9.60001,2.9-15.10001,2.9-8.5,0-13.5-3.3-13.5-9.8s5.39999-9.5,13-9.4c2.39999.1,4.5.3,6.29999.9v-1.2c0-2.6-1.79999-4.4-6.20001-4.4-3.5,0-6.5,1.4-8.10001,2.6-2-1.1-3.60001-3.2-4-6,1.70001-1.5,6.39999-4.3,13-4.3,8.60004-.1,14.60004,3.7,14.60004,13"/><path fill="#102a4c" d="M519.59998,34.8c-.09998,3.1-.90002,6-2.59998,8.1-1.09998-.3-2.29999-.4-3.59998-.4-2,0-3.60001.4-4.60001.9v21.4c-1.5.2-3.10001.4-4.70001.4s-3.10001-.1-4.60001-.4v-26.3c2.10001-1.9,6.70001-4.6,13.29999-4.6,2.70001,0,5,.3,6.79999.9"/><path fill="#102a4c" d="M541.90002,57.2v-14.3c-1.40002-.7-2.79999-.9-4.29999-.9-4.5,0-7.79999,3-7.79999,7.8s3.09998,7.9,7.70001,7.9c1.49994.1,2.99994-.1,4.39996-.5M551.29999,23.4v39.4c-3.09998,1.6-8.29999,3-13.5,3-10.90002,0-17.40002-5.7-17.40002-15.8s7.40002-16,16.70001-16c2,0,3.5.2,4.79999.6v-11.2c1.59998-.2,3.09998-.4,4.70001-.4s3.10004.2,4.70001.4"/><path fill="#102a4c" d="M556.09998,62c.5-3,1.90002-5.2,3.70001-6.3,2.20001,1.4,5.29999,3,9.79999,3,2.90002,0,3.90002-1.1,3.90002-2.4,0-1.6-1.59998-2.4-6.5-3.3-4.90002-1-10.09998-2.8-10.09998-9.4,0-6.2,5.70001-9.7,13.09998-9.7,6.20001,0,10,1.4,12.09998,2.8-.40002,3-1.59998,5.2-3.29999,6.5-2-1.1-5.29999-2.2-8.70001-2.2-3,0-4.29999.6-4.29999,2.1s1.29999,2.1,6,3c5.90002,1,10.90002,3,10.90002,9.4s-4.79999,10.1-13.5,10.1c-6.60004.20001-11.10004-1.99999-13.10004-3.59999"/><path fill="#102a4c" d="M170,24.4v40.1c-3,.6-6.2.7-9,.5l-15.60001-23-1.3-2.4.2,2.9v22.1c-1.60001.2-3.2.4-4.7.4s-2.8-.1-4.60001-.4V24.6c2.10001-.7,5.89999-1,9-.6l15.5,23.4,1.39999,2.5-.2-3.2v-22.3c1.7-.2,2.89999-.4,4.5-.4s3.10002.1,4.80002.4"/><path fill="#102a4c" d="M190.3,59.2c1.5,0,3-.2,4.5-.7v-5.5c-1.5-.4-3.2-.7-5.10001-.7-2.89999,0-4.8,1-4.8,3.2s1.8,3.7,5.40001,3.7M204.10001,47.1v15.7c-4.5,1.8-9.60001,2.9-15.10001,2.9-8.60001,0-13.5-3.3-13.5-9.8s5.39999-9.5,13-9.4c2.39999.1,4.5.3,6.3.9v-1.2c0-2.6-1.8-4.4-6.2-4.4-3.5,0-6.5,1.4-8.10001,2.6-2-1.1-3.60001-3.2-4-6,1.7-1.5,6.39999-4.3,12.89999-4.3,8.70001-.1,14.70001,3.7,14.70001,13"/><path fill="#102a4c" d="M234.2,62.3c-2.10001,1.7-5.10001,3.3-9.7,3.3-6.89999,0-12-2.9-12-10.2v-12.4h-5.10001c-.2-1.2-.3-2.5-.3-3.9,0-1.3.10001-2.5.3-3.8h5.10001v-7.9c1.60001-.2,3.2-.4,4.8-.4s3.10001.1,4.5.4v7.9h10.39999c.2,1.2.39999,2.5.39999,3.7,0,1.4-.2,2.6-.39999,4h-10.39999v10.1c0,3.4,1.60001,4.5,4.3,4.5,1.8,0,3.10001-.9,4.10001-1.8,1.89999,1.2,3.69998,4,3.99998,6.5"/><path fill="#102a4c" d="M266.60001,35.1v27.2c-2.29999,1.3-7.70001,3.5-14.8,3.5-10.2,0-14.3-4.8-14.3-12.1v-18.60001c1.60001-.2,3.10001-.4,4.7-.4s3.10001.1,4.60001.4v16.4c0,4.1,1.2,6,5.7,6,1.8,0,3.39999-.3,4.70001-.9v-21.5c1.60001-.2,3.10001-.4,4.60001-.4s3.29999.2,4.79999.4"/><path fill="#102a4c" d="M293.20001,34.8c-.10001,3.1-.89999,6-2.60001,8.1-1.10001-.3-2.29999-.4-3.60001-.4-2,0-3.60001.4-4.60001.9v21.4c-1.5.2-3.10001.4-4.70001.4s-3.10001-.1-4.60001-.4v-26.3c2.10001-1.9,6.70001-4.6,13.29999-4.6,2.70004,0,5.10004.3,6.80005.9"/><path fill="#102a4c" d="M309.10001,59.2c1.5,0,3-.2,4.5-.7v-5.5c-1.5-.4-3.20001-.7-5.10001-.7-3,0-4.79999,1-4.79999,3.2s1.79999,3.7,5.39999,3.7M322.89999,47.1v15.7c-4.5,1.8-9.60001,2.9-15.10001,2.9-8.5,0-13.5-3.3-13.5-9.8s5.39999-9.5,13-9.4c2.39999.1,4.5.3,6.29999.9v-1.2c0-2.6-1.79999-4.4-6.20001-4.4-3.5,0-6.5,1.4-8.10001,2.6-2-1.1-3.60001-3.2-4-6,1.70001-1.5,6.39999-4.3,13-4.3,8.70004-.1,14.60004,3.7,14.60004,13"/><path fill="#102a4c" d="M328.89999,64.7V23.5c1.39999-.2,3-.4,4.60001-.4s3.20001.1,4.79999.4v41.2c-1.5.2-3.10001.4-4.60001.4s-3.19998-.2-4.79999-.4"/><path fill="#102a4c" d="M135,101.2c0-12.6,8.7-21.5,21.2-21.5,5.7,0,9.7,1.7,12.39999,3.9-.39999,2.8-2.39999,5.9-5.10001,7.3-2.3-1.6-4.5-2.3-7.10001-2.3-6.8,0-11.2,4.7-11.2,12.6s4.5,12.5,11,12.5c4,0,6.2-1.2,8.10001-2.8,2.89999,1.7,4.5,3.9,5.10001,7.5-2.39999,1.9-6.39999,4.1-13.60001,4.1-12.79999,0-20.79999-8.69999-20.79999-21.3"/><path fill="#102a4c" d="M194.39999,106.5c0-4.9-2.5-8.1-6.89999-8.1s-7,3.2-7,8.1,2.60001,8.1,7,8.1,6.89999-3.3,6.89999-8.1M171.10001,106.5c0-9.6,6.89999-16,16.39999-16s16.3,6.2,16.3,16-6.89999,15.9-16.39999,15.9-16.3-6-16.3-15.9"/><path fill="#102a4c" d="M257.29999,102.6v18.8c-1.60001.2-3.10001.4-4.7.4s-3.10001-.1-4.7-.4v-16.7c0-3.7-1.8-5.7-5.3-5.7-2.39999,0-3.89999.9-5,1.7.10001.6.10001,1.3.10001,1.9v18.8c-1.60001.2-3.10001.4-4.7.4s-3.10001-.1-4.60001-.4v-16.7c0-3.7-1.8-5.7-5.3-5.7-2.10001,0-3.7.6-4.8,1.3v21.1c-1.60001.2-3.10001.4-4.7.4s-3.10001-.1-4.60001-.4v-25.9c2.10001-1.8,7.7-5,15.10001-5,4.2,0,7.5,1.1,9.7,2.8,2.39999-1.5,5.8-2.8,9.89999-2.8,9.10002,0,13.60001,5.1,13.60001,12.1"/><path fill="#102a4c" d="M312,102.6v18.8c-1.60001.2-3.10001.4-4.70001.4s-3.10001-.1-4.70001-.4v-16.7c0-3.7-1.79999-5.7-5.29999-5.7-2.39999,0-3.89999.9-5,1.7.10001.6.10001,1.3.10001,1.9v18.8c-1.60001.2-3.10001.4-4.70001.4s-3.10001-.1-4.60001-.4v-16.7c0-3.7-1.79999-5.7-5.29999-5.7-2.10001,0-3.70001.6-4.79999,1.3v21.1c-1.60001.2-3.10001.4-4.70001.4s-3.10001-.1-4.60001-.4v-25.9c2.10001-1.8,7.70001-5,15.10001-5,4.20001,0,7.5,1.1,9.70001,2.8,2.39999-1.5,5.79999-2.8,9.89999-2.8,9.20001,0,13.60001,5.1,13.60001,12.1"/><path fill="#102a4c" d="M318.39999,121.4v-29.8c1.5-.2,3.10001-.4,4.60001-.4s3.10001.1,4.70001.4v29.8c-1.5.2-3.10001.4-4.70001.4-1.5,0-3-.1-4.60001-.39999M317.5,82.1c0-3.1,2.5-5.6,5.70001-5.6s5.70001,2.5,5.70001,5.6-2.60001,5.7-5.70001,5.7-5.70001-2.7-5.70001-5.7"/><path fill="#102a4c" d="M332.70001,118.7c.5-2.9,1.89999-5.2,3.70001-6.3,2.20001,1.4,5.29999,3,9.79999,3,2.89999,0,3.89999-1.1,3.89999-2.4,0-1.6-1.60001-2.4-6.5-3.3-4.89999-1-10.10001-2.8-10.10001-9.4,0-6.2,5.70001-9.7,13.10001-9.7,6.20001,0,10,1.4,12.10001,2.8-.39999,3-1.60001,5.2-3.29999,6.5-2-1.1-5.29999-2.2-8.70001-2.2-3,0-4.29999.6-4.29999,2.1s1.29999,2.1,6,2.9c5.89999,1,10.89999,2.9,10.89999,9.4s-4.79999,10.1-13.5,10.1c-6.70001.3-11.20001-1.89999-13.10001-3.5"/><path fill="#102a4c" d="M362.79999,118.7c.5-2.9,1.89999-5.2,3.70001-6.3,2.20001,1.4,5.29999,3,9.79999,3,2.89999,0,3.89999-1.1,3.89999-2.4,0-1.6-1.60001-2.4-6.5-3.3-4.89999-1-10.10001-2.8-10.10001-9.4,0-6.2,5.70001-9.7,13.10001-9.7,6.20001,0,10,1.4,12.10001,2.8-.39999,3-1.60001,5.2-3.29999,6.5-2-1.1-5.29999-2.2-8.70001-2.2-3,0-4.29999.6-4.29999,2.1s1.29999,2.1,6,2.9c5.89999,1,10.89999,2.9,10.89999,9.4s-4.79999,10.1-13.5,10.1c-6.60001.3-11.10001-1.89999-13.10001-3.5"/><path fill="#102a4c" d="M394.79999,121.4v-29.8c1.5-.2,3.10001-.4,4.60001-.4s3.10001.1,4.70001.4v29.8c-1.5.2-3.10001.4-4.70001.4-1.39999,0-3-.1-4.60001-.39999M393.89999,82.1c0-3.1,2.5-5.6,5.70001-5.6s5.70001,2.5,5.70001,5.6-2.60001,5.7-5.70001,5.7-5.70001-2.7-5.70001-5.7"/><path fill="#102a4c" d="M432.60001,106.5c0-4.9-2.5-8.1-6.89999-8.1s-7,3.2-7,8.1,2.60001,8.1,7,8.1,6.89999-3.3,6.89999-8.1M409.29999,106.5c0-9.6,6.89999-16,16.39999-16s16.29999,6.2,16.29999,16-6.89999,15.9-16.39999,15.9-16.29999-6-16.29999-15.9"/><path fill="#102a4c" d="M476.5,103.3v18.1c-1.60001.2-3.10001.4-4.70001.4s-3.10001-.1-4.70001-.4v-16.6c0-4.3-2.29999-5.8-5.70001-5.8-2.20001,0-4,.6-5,1.3v21.1c-1.60001.2-3.10001.4-4.70001.4s-3.10001-.1-4.60001-.4v-25.9c2.29999-2.1,7.70001-5,15.10001-5,9.80005.1,14.30005,5.5,14.30005,12.8"/><polygon fill="#102a4c" points="144.7 145.89999 135 145.89999 135 142.5 158.5 142.5 158.5 145.89999 148.8 145.89999 148.8 174.39999 144.7 174.39999 144.7 145.89999"/><path fill="#102a4c" d="M175.39999,162.7c0-5.5-2.7-9.10001-6.8-9.10001s-6.8,3.60001-6.8,9.10001,2.7,9,6.8,9,6.8-3.59999,6.8-9M157.60001,162.7c0-7.89999,5.2-12.5,11-12.5s11,4.5,11,12.5-5.2,12.39999-11,12.39999-11-4.59999-11-12.39999"/><polygon fill="#102a4c" points="183.7 139.8 187.7 139.8 187.7 163.10001 187.89999 163.10001 197.89999 150.8 202.39999 150.8 194.5 160.3 203.39999 174.39999 199 174.39999 192.10001 163.10001 187.7 168.2 187.7 174.39999 183.7 174.39999 183.7 139.8"/><path fill="#102a4c" d="M219.2,168.7v-6.39999c-8,.89999-10.60001,2.7-10.60001,5.8,0,2.60001,1.8,3.60001,4.10001,3.60001s4.2-1.00002,6.5-3.00002M204.7,168.3c0-5.3,4.39999-7.8,14.5-8.89999-.10001-3-1-5.89999-4.89999-5.89999-2.7,0-5.2,1.2-7.10001,2.39999l-1.60001-2.7c2.2-1.5,5.5-3.10001,9.3-3.10001,5.8,0,8.2,3.89999,8.2,9.7v14.60001h-3.3l-.39999-2.8h-.10001c-2.2,1.89999-4.8,3.39999-7.8,3.39999-3.89998,0-6.79999-2.39999-6.79999-6.7"/><polygon fill="#102a4c" points="242.60001 145.89999 232.89999 145.89999 232.89999 142.5 256.39999 142.5 256.39999 145.89999 246.7 145.89999 246.7 174.39999 242.60001 174.39999 242.60001 145.89999"/><path fill="#102a4c" d="M262.20001,142.39999h13v2.8h-13v-2.8ZM259.10001,165.8v-15h4v14.5c0,4.39999,1.39999,6.3,4.5,6.3,2.39999,0,4.10001-1.2,6.29999-4v-16.8h4v23.7h-3.29999l-.29999-3.7h-.10001c-2.20001,2.60001-4.5,4.3-7.79999,4.3-5.10004-.10001-7.30002-3.3-7.30002-9.3"/><path fill="#102a4c" d="M299,161.39999h9.5l-1.5-4.8c-1.20001-3.60001-2.20001-7.10001-3.20001-10.8h-.20001c-1,3.7-2,7.2-3.10001,10.8l-1.49997,4.8h0ZM301.5,142.5h4.70001l10.79999,32h-4.29999l-3-9.7h-11.70001l-3.10001,9.7h-4.10001l10.70001-32h0Z"/><polygon fill="#102a4c" points="321.10001 139.8 325.10001 139.8 325.10001 163.10001 325.29999 163.10001 335.29999 150.8 339.79999 150.8 331.89999 160.3 340.79999 174.39999 336.39999 174.39999 329.5 163.10001 325.10001 168.2 325.10001 174.39999 321.10001 174.39999 321.10001 139.8"/><path fill="#102a4c" d="M357.89999,160.60001c0-4.7-2.20001-7.2-5.79999-7.2-3.29999,0-6.20001,2.60001-6.70001,7.2h12.5ZM341.39999,162.60001c0-7.7,5.20001-12.39999,10.60001-12.39999,6,0,9.5,4.3,9.5,11.10001,0,.89999,0,1.60001-.20001,2.39999h-15.89999c.29999,4.89999,3.29999,8.10001,7.79999,8.10001,2.29999,0,4.29999-.60001,5.89999-1.8l1.39999,2.60001c-2,1.5-4.60001,2.39999-7.89999,2.39999-6.19998.09999-11.19998-4.50002-11.19998-12.40001"/></svg>