<svg width="1689.8" height="411.8" viewBox="0 0 1689.8 411.8" xmlns="http://www.w3.org/2000/svg"><defs><pattern id="smallDotsAltogether" width="14.2" height="14.2" patternUnits="userSpaceOnUse" fill="#800900"><circle cx="7.1" cy="7.1" r="1.6"></circle></pattern><g fill="#800900" id="tsunamiShape"><circle cx="63.87" cy="7.1" r="2.8"></circle><circle cx="63.87" cy="21.29" r="3.5"></circle><circle cx="134.85" cy="21.29" r="2.8"></circle><circle cx="63.87" cy="35.48" r="4.3"></circle><circle cx="134.85" cy="35.48" r="3.5"></circle><circle cx="63.87" cy="49.67" r="5"></circle><circle cx="134.85" cy="49.67" r="4.3"></circle><circle cx="7.1" cy="63.87" r="2.8"></circle><circle cx="21.29" cy="63.87" r="3.5"></circle><circle cx="35.48" cy="63.87" r="4.3"></circle><circle cx="49.67" cy="63.87" r="5"></circle><circle cx="63.87" cy="63.87" r="5.7"></circle><circle cx="134.85" cy="63.87" r="5"></circle><circle cx="78.06" cy="78.06" r="2.8"></circle><circle cx="92.26" cy="78.06" r="3.5"></circle><circle cx="106.46" cy="78.06" r="4.3"></circle><circle cx="120.66" cy="78.06" r="5"></circle><circle cx="134.85" cy="78.06" r="5.7"></circle><circle cx="78.06" cy="92.26" r="3.5"></circle><circle cx="78.06" cy="106.46" r="4.3"></circle><circle cx="78.06" cy="120.66" r="5"></circle><circle cx="21.29" cy="134.85" r="2.8"></circle><circle cx="35.48" cy="134.85" r="3.5"></circle><circle cx="49.67" cy="134.85" r="4.3"></circle><circle cx="63.87" cy="134.85" r="5"></circle><circle cx="78.06" cy="134.85" r="5.7"></circle></g><g fill="#800900" id="landslideThirdShape"><circle cx="63.87" cy="7.1" r="2.8"></circle><circle cx="49.67" cy="21.29" r="4.3"></circle><circle cx="78.06" cy="21.29" r="2.8"></circle><circle cx="35.48" cy="35.48" r="5.7"></circle><circle cx="63.87" cy="35.48" r="4.3"></circle><circle cx="21.29" cy="49.67" r="4.3"></circle><circle cx="49.67" cy="49.67" r="5.7"></circle><circle cx="7.1" cy="63.87" r="2.8"></circle><circle cx="35.48" cy="63.87" r="4.3"></circle><circle cx="21.29" cy="78.06" r="2.8"></circle></g><g fill="#800900" id="earthquakeHalfShape"><circle cx="35.48" cy="7.1" r="2.8"></circle><circle cx="21.29" cy="21.29" r="4.3"></circle><circle cx="7.1" cy="35.48" r="5.7"></circle><circle cx="7.1" cy="49.67" r="2.8"></circle><circle cx="21.29" cy="49.67" r="4.3"></circle><circle cx="7.1" cy="63.87" r="2.8"></circle><circle cx="21.29" cy="63.87" r="2.8"></circle><circle cx="35.48" cy="63.87" r="2.8"></circle><circle cx="92.26" cy="63.87" r="2.8"></circle><circle cx="21.29" cy="78.06" r="2.8"></circle><circle cx="35.48" cy="78.06" r="2.8"></circle><circle cx="49.67" cy="78.06" r="4.3"></circle><circle cx="78.06" cy="78.06" r="4.3"></circle><circle cx="35.48" cy="92.26" r="2.8"></circle><circle cx="49.67" cy="92.26" r="2.8"></circle><circle cx="63.87" cy="92.26" r="5.7"></circle></g><g fill="#800900" id="volcanoHalfShape"><circle cx="63.87" cy="7.1" r="3.5"></circle><circle cx="49.67" cy="21.29" r="4.3"></circle><circle cx="78.06" cy="21.29" r="4.3"></circle><circle cx="35.48" cy="35.48" r="5"></circle><circle cx="92.26" cy="35.48" r="5"></circle><circle cx="21.29" cy="49.67" r="5.7"></circle><circle cx="106.46" cy="49.67" r="5.7"></circle><circle cx="7.1" cy="63.87" r="6.4"></circle><circle cx="120.66" cy="63.87" r="6.4"></circle></g><g fill="#800900" id="block"><use href="#tsunamiShape" x="127.8" y="14.2"></use><use href="#landslideThirdShape" x="99.4" y="184.6"></use><use href="#landslideThirdShape" x="142.0" y="227.2"></use><use href="#landslideThirdShape" x="56.8" y="269.8"></use><use href="#earthquakeHalfShape" x="369.2" y="42.6"></use><use href="#earthquakeHalfShape" x="14.2" y="397.6" transform="matrix(0 1 1 0 0 0)"></use><use href="#volcanoHalfShape" x="255.6" y="127.8"></use><use href="#volcanoHalfShape" x="255.6" y="184.6"></use></g></defs><rect width="100%" height="100%" fill="url(#smallDotsAltogether"></rect><use href="#block" x="-56.8" y="-14.2"></use><use href="#block" x="340.8" y="-85.2"></use><use href="#block" x="738.4" y="-156.2"></use><use href="#block" x="1136.0" y="-227.2"></use><use href="#earthquakeHalfShape" x="71.0" y="-56.8" transform="matrix(0 1 1 0 0 0)"></use><use href="#tsunamiShape" x="1363.2" y="56.8"></use><use href="#earthquakeHalfShape" x="1604.6" y="99.4"></use><use href="#earthquakeHalfShape" x="71.0" y="1633.0" transform="matrix(0 1 1 0 0 0)"></use><use href="#landslideThirdShape" x="1590.4" y="-28.4"></use><use href="#tsunamiShape" x="965.6" y="127.8"></use><use href="#earthquakeHalfShape" x="127.8" y="1235.4" transform="matrix(0 1 1 0 0 0)"></use></svg>
